M48
METRIC,TZ
VER,1
FMAT,2
DETECT,ON
ATC,ON
T1C1.0000
T2C6.0000
%
T1
X289560Y297180
X518160
X289560Y322580
X518160
X289560Y347980
X518160
X289560Y373380
X518160
X289560Y398780
X518160
X289560Y424180
X518160
X289560Y449580
X518160
X289560Y474980
X518160
X289560Y500380
X518160
X289560Y525780
X518160
X53340Y241300
X205740
X53340Y266700
X205740
X53340Y292100
X205740
X53340Y317500
X205740
X53340Y342900
X205740
X53340Y368300
X205740
X53340Y393700
X205740
X53340Y419100
X205740
X53340Y444500
X205740
X53340Y469900
X205740
X53340Y495300
X205740
X53340Y520700
X205740
X53340Y546100
X205740
X53340Y571500
X205740
X53340Y596900
X205740
X289560Y127000
Y152400
Y177800
Y203200
Y228600
Y254000
X518160Y177800
Y203200
Y228600
Y254000
Y25400
Y50800
Y152400
Y127000
Y101600
Y76200
X289560Y101600
Y76200
Y50800
Y25400
X335280Y571500
X309880
X104140Y68580
Y43180
X139700Y68580
Y43180
X177800Y68580
Y43180
X213360Y68580
Y43180
X83820Y469900
Y495300
Y520700
Y546100
Y571500
X513080Y558800
X487680
X617220Y160020
Y185420
X551180Y101600
Y127000
Y152400
Y76200
X571500Y25400
X622300
X556260Y246380
Y297180
X551180Y347980
Y373380
Y398780
Y424180
X629920Y350520
Y375920
X596900Y317500
Y424500
X66040Y68580
Y43180
X586440Y468742
X611840
X561040
T2
X-2540Y566420
X652780Y93980
X660400Y561340
X0Y48260
M30
