G04 Generated by Ultiboard 14.2 *
%FSLAX25Y25*%
%MOIN*%

%ADD10C,0.00001*%
%ADD11C,0.00004*%
%ADD12R,0.05512X0.03937*%
%ADD13C,0.03150*%
%ADD14R,0.03937X0.05512*%
%ADD15R,0.02251X0.05834*%
%ADD16C,0.01666*%
%ADD17R,0.05834X0.02251*%
%ADD18C,0.23622*%


G04 ColorRGB FF00CC for the following layer *
%LNSolder Mask Top*%
%LPD*%
G54D10*
G54D11*
X998Y0D02*
X321000Y0D01*
X321000Y241000D01*
X998Y241000D01*
X998Y0D01*
G54D12*
X144000Y117000D03*
X234000Y117000D03*
X144000Y127000D03*
X234000Y127000D03*
X144000Y137000D03*
X234000Y137000D03*
X144000Y147000D03*
X234000Y147000D03*
X144000Y157000D03*
X234000Y157000D03*
X144000Y167000D03*
X234000Y167000D03*
X144000Y177000D03*
X234000Y177000D03*
X144000Y187000D03*
X234000Y187000D03*
X144000Y197000D03*
X234000Y197000D03*
X144000Y207000D03*
X234000Y207000D03*
X51000Y95000D03*
X111000Y95000D03*
X51000Y105000D03*
X111000Y105000D03*
X51000Y115000D03*
X111000Y115000D03*
X51000Y125000D03*
X111000Y125000D03*
X51000Y135000D03*
X111000Y135000D03*
X51000Y145000D03*
X111000Y145000D03*
X51000Y155000D03*
X111000Y155000D03*
X51000Y165000D03*
X111000Y165000D03*
X51000Y175000D03*
X111000Y175000D03*
X51000Y185000D03*
X111000Y185000D03*
X51000Y195000D03*
X111000Y195000D03*
X51000Y205000D03*
X111000Y205000D03*
X51000Y215000D03*
X111000Y215000D03*
X51000Y225000D03*
X111000Y225000D03*
X51000Y235000D03*
X111000Y235000D03*
X144000Y50000D03*
X144000Y60000D03*
X144000Y70000D03*
X144000Y80000D03*
X144000Y90000D03*
X144000Y100000D03*
X234000Y70000D03*
X234000Y80000D03*
X234000Y90000D03*
X234000Y100000D03*
X234000Y10000D03*
X234000Y20000D03*
X234000Y60000D03*
X234000Y50000D03*
X234000Y40000D03*
X234000Y30000D03*
X144000Y40000D03*
X144000Y30000D03*
X144000Y20000D03*
X144000Y10000D03*
X71000Y27000D03*
X71000Y17000D03*
X85000Y27000D03*
X85000Y17000D03*
X100000Y27000D03*
X100000Y17000D03*
X114000Y27000D03*
X114000Y17000D03*
X63000Y185000D03*
X63000Y195000D03*
X63000Y205000D03*
X63000Y215000D03*
X63000Y225000D03*
X273000Y63000D03*
X273000Y73000D03*
X247000Y40000D03*
X247000Y50000D03*
X247000Y60000D03*
X247000Y30000D03*
X255000Y10000D03*
X275000Y10000D03*
X247000Y137000D03*
X247000Y147000D03*
X247000Y157000D03*
X247000Y167000D03*
X265000Y125000D03*
X265000Y167126D03*
X56000Y27000D03*
X56000Y17000D03*
X278000Y141000D03*
X278000Y151000D03*
G54D13*
X141244Y115032D02*
X146756Y115032D01*
X146756Y118968D01*
X141244Y118968D01*
X141244Y115032D01*D02*
X231244Y115032D02*
X236756Y115032D01*
X236756Y118968D01*
X231244Y118968D01*
X231244Y115032D01*D02*
X141244Y125032D02*
X146756Y125032D01*
X146756Y128968D01*
X141244Y128968D01*
X141244Y125032D01*D02*
X231244Y125032D02*
X236756Y125032D01*
X236756Y128968D01*
X231244Y128968D01*
X231244Y125032D01*D02*
X141244Y135032D02*
X146756Y135032D01*
X146756Y138968D01*
X141244Y138968D01*
X141244Y135032D01*D02*
X231244Y135032D02*
X236756Y135032D01*
X236756Y138968D01*
X231244Y138968D01*
X231244Y135032D01*D02*
X141244Y145032D02*
X146756Y145032D01*
X146756Y148968D01*
X141244Y148968D01*
X141244Y145032D01*D02*
X231244Y145032D02*
X236756Y145032D01*
X236756Y148968D01*
X231244Y148968D01*
X231244Y145032D01*D02*
X141244Y155032D02*
X146756Y155032D01*
X146756Y158968D01*
X141244Y158968D01*
X141244Y155032D01*D02*
X231244Y155032D02*
X236756Y155032D01*
X236756Y158968D01*
X231244Y158968D01*
X231244Y155032D01*D02*
X141244Y165032D02*
X146756Y165032D01*
X146756Y168968D01*
X141244Y168968D01*
X141244Y165032D01*D02*
X231244Y165032D02*
X236756Y165032D01*
X236756Y168968D01*
X231244Y168968D01*
X231244Y165032D01*D02*
X141244Y175032D02*
X146756Y175032D01*
X146756Y178968D01*
X141244Y178968D01*
X141244Y175032D01*D02*
X231244Y175032D02*
X236756Y175032D01*
X236756Y178968D01*
X231244Y178968D01*
X231244Y175032D01*D02*
X141244Y185032D02*
X146756Y185032D01*
X146756Y188968D01*
X141244Y188968D01*
X141244Y185032D01*D02*
X231244Y185032D02*
X236756Y185032D01*
X236756Y188968D01*
X231244Y188968D01*
X231244Y185032D01*D02*
X141244Y195032D02*
X146756Y195032D01*
X146756Y198968D01*
X141244Y198968D01*
X141244Y195032D01*D02*
X231244Y195032D02*
X236756Y195032D01*
X236756Y198968D01*
X231244Y198968D01*
X231244Y195032D01*D02*
X141244Y205032D02*
X146756Y205032D01*
X146756Y208968D01*
X141244Y208968D01*
X141244Y205032D01*D02*
X231244Y205032D02*
X236756Y205032D01*
X236756Y208968D01*
X231244Y208968D01*
X231244Y205032D01*D02*
X48244Y93032D02*
X53756Y93032D01*
X53756Y96968D01*
X48244Y96968D01*
X48244Y93032D01*D02*
X108244Y93032D02*
X113756Y93032D01*
X113756Y96968D01*
X108244Y96968D01*
X108244Y93032D01*D02*
X48244Y103032D02*
X53756Y103032D01*
X53756Y106968D01*
X48244Y106968D01*
X48244Y103032D01*D02*
X108244Y103032D02*
X113756Y103032D01*
X113756Y106968D01*
X108244Y106968D01*
X108244Y103032D01*D02*
X48244Y113032D02*
X53756Y113032D01*
X53756Y116968D01*
X48244Y116968D01*
X48244Y113032D01*D02*
X108244Y113032D02*
X113756Y113032D01*
X113756Y116968D01*
X108244Y116968D01*
X108244Y113032D01*D02*
X48244Y123032D02*
X53756Y123032D01*
X53756Y126968D01*
X48244Y126968D01*
X48244Y123032D01*D02*
X108244Y123032D02*
X113756Y123032D01*
X113756Y126968D01*
X108244Y126968D01*
X108244Y123032D01*D02*
X48244Y133032D02*
X53756Y133032D01*
X53756Y136968D01*
X48244Y136968D01*
X48244Y133032D01*D02*
X108244Y133032D02*
X113756Y133032D01*
X113756Y136968D01*
X108244Y136968D01*
X108244Y133032D01*D02*
X48244Y143032D02*
X53756Y143032D01*
X53756Y146968D01*
X48244Y146968D01*
X48244Y143032D01*D02*
X108244Y143032D02*
X113756Y143032D01*
X113756Y146968D01*
X108244Y146968D01*
X108244Y143032D01*D02*
X48244Y153032D02*
X53756Y153032D01*
X53756Y156968D01*
X48244Y156968D01*
X48244Y153032D01*D02*
X108244Y153032D02*
X113756Y153032D01*
X113756Y156968D01*
X108244Y156968D01*
X108244Y153032D01*D02*
X48244Y163032D02*
X53756Y163032D01*
X53756Y166968D01*
X48244Y166968D01*
X48244Y163032D01*D02*
X108244Y163032D02*
X113756Y163032D01*
X113756Y166968D01*
X108244Y166968D01*
X108244Y163032D01*D02*
X48244Y173032D02*
X53756Y173032D01*
X53756Y176968D01*
X48244Y176968D01*
X48244Y173032D01*D02*
X108244Y173032D02*
X113756Y173032D01*
X113756Y176968D01*
X108244Y176968D01*
X108244Y173032D01*D02*
X48244Y183032D02*
X53756Y183032D01*
X53756Y186968D01*
X48244Y186968D01*
X48244Y183032D01*D02*
X108244Y183032D02*
X113756Y183032D01*
X113756Y186968D01*
X108244Y186968D01*
X108244Y183032D01*D02*
X48244Y193032D02*
X53756Y193032D01*
X53756Y196968D01*
X48244Y196968D01*
X48244Y193032D01*D02*
X108244Y193032D02*
X113756Y193032D01*
X113756Y196968D01*
X108244Y196968D01*
X108244Y193032D01*D02*
X48244Y203032D02*
X53756Y203032D01*
X53756Y206968D01*
X48244Y206968D01*
X48244Y203032D01*D02*
X108244Y203032D02*
X113756Y203032D01*
X113756Y206968D01*
X108244Y206968D01*
X108244Y203032D01*D02*
X48244Y213032D02*
X53756Y213032D01*
X53756Y216968D01*
X48244Y216968D01*
X48244Y213032D01*D02*
X108244Y213032D02*
X113756Y213032D01*
X113756Y216968D01*
X108244Y216968D01*
X108244Y213032D01*D02*
X48244Y223032D02*
X53756Y223032D01*
X53756Y226968D01*
X48244Y226968D01*
X48244Y223032D01*D02*
X108244Y223032D02*
X113756Y223032D01*
X113756Y226968D01*
X108244Y226968D01*
X108244Y223032D01*D02*
X48244Y233032D02*
X53756Y233032D01*
X53756Y236968D01*
X48244Y236968D01*
X48244Y233032D01*D02*
X108244Y233032D02*
X113756Y233032D01*
X113756Y236968D01*
X108244Y236968D01*
X108244Y233032D01*D02*
X141244Y48032D02*
X146756Y48032D01*
X146756Y51968D01*
X141244Y51968D01*
X141244Y48032D01*D02*
X141244Y58032D02*
X146756Y58032D01*
X146756Y61968D01*
X141244Y61968D01*
X141244Y58032D01*D02*
X141244Y68032D02*
X146756Y68032D01*
X146756Y71968D01*
X141244Y71968D01*
X141244Y68032D01*D02*
X141244Y78032D02*
X146756Y78032D01*
X146756Y81968D01*
X141244Y81968D01*
X141244Y78032D01*D02*
X141244Y88032D02*
X146756Y88032D01*
X146756Y91968D01*
X141244Y91968D01*
X141244Y88032D01*D02*
X141244Y98032D02*
X146756Y98032D01*
X146756Y101968D01*
X141244Y101968D01*
X141244Y98032D01*D02*
X231244Y68032D02*
X236756Y68032D01*
X236756Y71968D01*
X231244Y71968D01*
X231244Y68032D01*D02*
X231244Y78032D02*
X236756Y78032D01*
X236756Y81968D01*
X231244Y81968D01*
X231244Y78032D01*D02*
X231244Y88032D02*
X236756Y88032D01*
X236756Y91968D01*
X231244Y91968D01*
X231244Y88032D01*D02*
X231244Y98032D02*
X236756Y98032D01*
X236756Y101968D01*
X231244Y101968D01*
X231244Y98032D01*D02*
X231244Y8032D02*
X236756Y8032D01*
X236756Y11968D01*
X231244Y11968D01*
X231244Y8032D01*D02*
X231244Y18032D02*
X236756Y18032D01*
X236756Y21968D01*
X231244Y21968D01*
X231244Y18032D01*D02*
X231244Y58032D02*
X236756Y58032D01*
X236756Y61968D01*
X231244Y61968D01*
X231244Y58032D01*D02*
X231244Y48032D02*
X236756Y48032D01*
X236756Y51968D01*
X231244Y51968D01*
X231244Y48032D01*D02*
X231244Y38032D02*
X236756Y38032D01*
X236756Y41968D01*
X231244Y41968D01*
X231244Y38032D01*D02*
X231244Y28032D02*
X236756Y28032D01*
X236756Y31968D01*
X231244Y31968D01*
X231244Y28032D01*D02*
X141244Y38032D02*
X146756Y38032D01*
X146756Y41968D01*
X141244Y41968D01*
X141244Y38032D01*D02*
X141244Y28032D02*
X146756Y28032D01*
X146756Y31968D01*
X141244Y31968D01*
X141244Y28032D01*D02*
X141244Y18032D02*
X146756Y18032D01*
X146756Y21968D01*
X141244Y21968D01*
X141244Y18032D01*D02*
X141244Y8032D02*
X146756Y8032D01*
X146756Y11968D01*
X141244Y11968D01*
X141244Y8032D01*D02*
X160032Y222244D02*
X163968Y222244D01*
X163968Y227756D01*
X160032Y227756D01*
X160032Y222244D01*D02*
X150032Y222244D02*
X153968Y222244D01*
X153968Y227756D01*
X150032Y227756D01*
X150032Y222244D01*D02*
X68244Y25032D02*
X73756Y25032D01*
X73756Y28968D01*
X68244Y28968D01*
X68244Y25032D01*D02*
X68244Y15032D02*
X73756Y15032D01*
X73756Y18968D01*
X68244Y18968D01*
X68244Y15032D01*D02*
X82244Y25032D02*
X87756Y25032D01*
X87756Y28968D01*
X82244Y28968D01*
X82244Y25032D01*D02*
X82244Y15032D02*
X87756Y15032D01*
X87756Y18968D01*
X82244Y18968D01*
X82244Y15032D01*D02*
X97244Y25032D02*
X102756Y25032D01*
X102756Y28968D01*
X97244Y28968D01*
X97244Y25032D01*D02*
X97244Y15032D02*
X102756Y15032D01*
X102756Y18968D01*
X97244Y18968D01*
X97244Y15032D01*D02*
X111244Y25032D02*
X116756Y25032D01*
X116756Y28968D01*
X111244Y28968D01*
X111244Y25032D01*D02*
X111244Y15032D02*
X116756Y15032D01*
X116756Y18968D01*
X111244Y18968D01*
X111244Y15032D01*D02*
X60244Y183032D02*
X65756Y183032D01*
X65756Y186968D01*
X60244Y186968D01*
X60244Y183032D01*D02*
X60244Y193032D02*
X65756Y193032D01*
X65756Y196968D01*
X60244Y196968D01*
X60244Y193032D01*D02*
X60244Y203032D02*
X65756Y203032D01*
X65756Y206968D01*
X60244Y206968D01*
X60244Y203032D01*D02*
X60244Y213032D02*
X65756Y213032D01*
X65756Y216968D01*
X60244Y216968D01*
X60244Y213032D01*D02*
X60244Y223032D02*
X65756Y223032D01*
X65756Y226968D01*
X60244Y226968D01*
X60244Y223032D01*D02*
X230032Y217244D02*
X233968Y217244D01*
X233968Y222756D01*
X230032Y222756D01*
X230032Y217244D01*D02*
X220032Y217244D02*
X223968Y217244D01*
X223968Y222756D01*
X220032Y222756D01*
X220032Y217244D01*D02*
X270244Y61032D02*
X275756Y61032D01*
X275756Y64968D01*
X270244Y64968D01*
X270244Y61032D01*D02*
X270244Y71032D02*
X275756Y71032D01*
X275756Y74968D01*
X270244Y74968D01*
X270244Y71032D01*D02*
X244244Y38032D02*
X249756Y38032D01*
X249756Y41968D01*
X244244Y41968D01*
X244244Y38032D01*D02*
X244244Y48032D02*
X249756Y48032D01*
X249756Y51968D01*
X244244Y51968D01*
X244244Y48032D01*D02*
X244244Y58032D02*
X249756Y58032D01*
X249756Y61968D01*
X244244Y61968D01*
X244244Y58032D01*D02*
X244244Y28032D02*
X249756Y28032D01*
X249756Y31968D01*
X244244Y31968D01*
X244244Y28032D01*D02*
X252244Y8032D02*
X257756Y8032D01*
X257756Y11968D01*
X252244Y11968D01*
X252244Y8032D01*D02*
X272244Y8032D02*
X277756Y8032D01*
X277756Y11968D01*
X272244Y11968D01*
X272244Y8032D01*D02*
X247032Y94244D02*
X250968Y94244D01*
X250968Y99756D01*
X247032Y99756D01*
X247032Y94244D01*D02*
X247032Y114244D02*
X250968Y114244D01*
X250968Y119756D01*
X247032Y119756D01*
X247032Y114244D01*D02*
X244244Y135032D02*
X249756Y135032D01*
X249756Y138968D01*
X244244Y138968D01*
X244244Y135032D01*D02*
X244244Y145032D02*
X249756Y145032D01*
X249756Y148968D01*
X244244Y148968D01*
X244244Y145032D01*D02*
X244244Y155032D02*
X249756Y155032D01*
X249756Y158968D01*
X244244Y158968D01*
X244244Y155032D01*D02*
X244244Y165032D02*
X249756Y165032D01*
X249756Y168968D01*
X244244Y168968D01*
X244244Y165032D01*D02*
X262244Y123032D02*
X267756Y123032D01*
X267756Y126968D01*
X262244Y126968D01*
X262244Y123032D01*D02*
X262244Y165158D02*
X267756Y165158D01*
X267756Y169094D01*
X262244Y169094D01*
X262244Y165158D01*D02*
X53244Y25032D02*
X58756Y25032D01*
X58756Y28968D01*
X53244Y28968D01*
X53244Y25032D01*D02*
X53244Y15032D02*
X58756Y15032D01*
X58756Y18968D01*
X53244Y18968D01*
X53244Y15032D01*D02*
X258914Y181788D02*
X262850Y181788D01*
X262850Y187300D01*
X258914Y187300D01*
X258914Y181788D01*D02*
X268914Y181788D02*
X272850Y181788D01*
X272850Y187300D01*
X268914Y187300D01*
X268914Y181788D01*D02*
X248914Y181788D02*
X252850Y181788D01*
X252850Y187300D01*
X248914Y187300D01*
X248914Y181788D01*D02*
X275244Y139032D02*
X280756Y139032D01*
X280756Y142968D01*
X275244Y142968D01*
X275244Y139032D01*D02*
X275244Y149032D02*
X280756Y149032D01*
X280756Y152968D01*
X275244Y152968D01*
X275244Y149032D01*D02*
G54D14*
X162000Y225000D03*
X152000Y225000D03*
X232000Y220000D03*
X222000Y220000D03*
X249000Y97000D03*
X249000Y117000D03*
X260882Y184544D03*
X270882Y184544D03*
X250882Y184544D03*
G54D15*
X260500Y202000D03*
X271500Y202000D03*
G54D16*
X259375Y199083D02*
X261625Y199083D01*
X261625Y204917D01*
X259375Y204917D01*
X259375Y199083D01*D02*
X270375Y199083D02*
X272625Y199083D01*
X272625Y204917D01*
X270375Y204917D01*
X270375Y199083D01*D02*
X249083Y226375D02*
X254917Y226375D01*
X254917Y228625D01*
X249083Y228625D01*
X249083Y226375D01*D02*
X249083Y215375D02*
X254917Y215375D01*
X254917Y217625D01*
X249083Y217625D01*
X249083Y215375D01*D02*
X265083Y215375D02*
X270917Y215375D01*
X270917Y217625D01*
X265083Y217625D01*
X265083Y215375D01*D02*
X265083Y226375D02*
X270917Y226375D01*
X270917Y228625D01*
X265083Y228625D01*
X265083Y226375D01*D02*
G54D17*
X252000Y227500D03*
X252000Y216500D03*
X268000Y216500D03*
X268000Y227500D03*
G54D18*
X25000Y219000D03*
X25000Y23000D03*
X299000Y219000D03*
X298000Y23000D03*

M02*
