G04 Generated by Ultiboard 14.2 *
%FSLAX25Y25*%
%MOIN*%

%ADD10C,0.00001*%
%ADD11C,0.00004*%
%ADD12C,0.00005*%
%ADD13C,0.00787*%
%ADD14C,0.00800*%
%ADD15C,0.00700*%


G04 ColorRGB FFFF00 for the following layer *
%LNSilkscreen Top*%
%LPD*%
G54D10*
G54D11*
X193290Y116823D02*
G75*
D01*
G02X193290Y116823I2179J0*
G01*
X109995Y113181D02*
X207969Y113181D01*
X207969Y210819D01*
X109995Y210819D01*
X109995Y113181D01*
X193290Y9823D02*
G75*
D01*
G02X193290Y9823I2179J0*
G01*
X109995Y6181D02*
X207969Y6181D01*
X207969Y103819D01*
X109995Y103819D01*
X109995Y6181D01*
X221000Y11000D02*
X221000Y9000D01*
G75*
D01*
G03X224000Y6000I3000J0*
G01*
X246000Y6000D01*
G75*
D01*
G03X249000Y9000I0J3000*
G01*
X249000Y11000D01*
G74*
D01*
G03X246000Y14000I3000J0*
G01*
X224000Y14000D01*
G75*
D01*
G03X221000Y11000I0J-3000*
G01*
X215000Y118000D02*
X215000Y96000D01*
G75*
D01*
G03X218000Y93000I3000J0*
G01*
X220000Y93000D01*
G75*
D01*
G03X223000Y96000I0J3000*
G01*
X223000Y118000D01*
G74*
D01*
G03X220000Y121000I3000J0*
G01*
X218000Y121000D01*
G75*
D01*
G03X215000Y118000I0J-3000*
G01*
G54D12*
X85000Y238000D02*
X17000Y238000D01*
X17000Y92000D01*
X85000Y92000D01*
X85000Y238000D01*
X26586Y235000D02*
G75*
D01*
G02X26586Y235000I1414J0*
G01*
G54D13*
X131000Y217244D02*
X134024Y217244D01*
X119757Y216062D02*
X122780Y216062D01*
X121268Y218087D02*
X121268Y214037D01*
X232757Y63062D02*
X235780Y63062D01*
X233236Y73000D02*
X236260Y73000D01*
X234748Y75025D02*
X234748Y70975D01*
X126033Y237099D02*
X123009Y237099D01*
X123009Y235074D01*
X125025Y235074D01*
X126033Y234062D01*
X126033Y233050D01*
X125025Y232037D01*
X123009Y232037D01*
X127545Y237099D02*
X129056Y232037D01*
X130568Y237099D01*
X250963Y198009D02*
X245901Y198009D01*
X245901Y200025D01*
X246913Y201033D01*
X247419Y201033D01*
X248432Y200025D01*
X248432Y198009D01*
X248432Y198513D02*
X250963Y201033D01*
X248938Y205568D02*
X248938Y202545D01*
X245901Y205064D01*
X250963Y205064D01*
X250963Y204560D02*
X250963Y205568D01*
X217009Y206037D02*
X217009Y211099D01*
X219025Y211099D01*
X220033Y210087D01*
X220033Y209581D01*
X219025Y208568D01*
X217009Y208568D01*
X217513Y208568D02*
X220033Y206037D01*
X222049Y210593D02*
X222552Y211099D01*
X223560Y211099D01*
X224568Y210087D01*
X224568Y209074D01*
X224064Y208568D01*
X224568Y208062D01*
X224568Y207050D01*
X223560Y206037D01*
X222552Y206037D01*
X222049Y206543D01*
X222552Y208568D02*
X224064Y208568D01*
X36969Y5904D02*
X37976Y4892D01*
X38984Y4892D01*
X39992Y5904D01*
X36969Y8941D01*
X37976Y9954D01*
X38984Y9954D01*
X39992Y8941D01*
X44528Y6917D02*
X41504Y6917D01*
X44024Y9954D01*
X44024Y4892D01*
X43520Y4892D02*
X44528Y4892D01*
X50969Y5904D02*
X51976Y4892D01*
X52984Y4892D01*
X53992Y5904D01*
X50969Y8941D01*
X51976Y9954D01*
X52984Y9954D01*
X53992Y8941D01*
X56008Y9448D02*
X56512Y9954D01*
X57520Y9954D01*
X58528Y8941D01*
X58528Y7929D01*
X58024Y7423D01*
X58528Y6917D01*
X58528Y5904D01*
X57520Y4892D01*
X56512Y4892D01*
X56008Y5398D01*
X56512Y7423D02*
X58024Y7423D01*
X65969Y5904D02*
X66976Y4892D01*
X67984Y4892D01*
X68992Y5904D01*
X65969Y8941D01*
X66976Y9954D01*
X67984Y9954D01*
X68992Y8941D01*
X70504Y8941D02*
X71512Y9954D01*
X72520Y9954D01*
X73528Y8941D01*
X73528Y8435D01*
X70504Y4892D01*
X73528Y4892D01*
X73528Y5398D01*
X79969Y5904D02*
X80976Y4892D01*
X81984Y4892D01*
X82992Y5904D01*
X79969Y8941D01*
X80976Y9954D01*
X81984Y9954D01*
X82992Y8941D01*
X85008Y8941D02*
X86016Y9954D01*
X86016Y4892D01*
X84504Y4892D02*
X87528Y4892D01*
X43950Y199009D02*
X44963Y200017D01*
X44963Y201025D01*
X43950Y202033D01*
X39901Y202033D01*
X40407Y204049D02*
X39901Y204552D01*
X39901Y205560D01*
X40913Y206568D01*
X41926Y206568D01*
X42432Y206064D01*
X42938Y206568D01*
X43950Y206568D01*
X44963Y205560D01*
X44963Y204552D01*
X44457Y204049D01*
X42432Y204552D02*
X42432Y206064D01*
X193009Y232099D02*
X193009Y228050D01*
X194017Y227037D01*
X195025Y227037D01*
X196033Y228050D01*
X196033Y232099D01*
X198049Y231087D02*
X199056Y232099D01*
X199056Y227037D01*
X197545Y227037D02*
X200568Y227037D01*
X240913Y81262D02*
X239901Y82270D01*
X239901Y83277D01*
X240913Y84285D01*
X241419Y84285D01*
X244963Y81262D01*
X244963Y84285D01*
X244457Y84285D01*
X242938Y88821D02*
X242938Y85797D01*
X239901Y88317D01*
X244963Y88317D01*
X244963Y87813D02*
X244963Y88821D01*
X239901Y90333D02*
X244963Y91844D01*
X239901Y93356D01*
X245009Y131099D02*
X245009Y127050D01*
X246017Y126037D01*
X247025Y126037D01*
X248033Y127050D01*
X248033Y131099D01*
X252568Y128062D02*
X249545Y128062D01*
X252064Y131099D01*
X252064Y126037D01*
X251560Y126037D02*
X252568Y126037D01*
X245568Y156504D02*
X245568Y158520D01*
X244556Y159528D01*
X241519Y159528D01*
X240506Y158520D01*
X240506Y156504D01*
X240506Y157008D02*
X245568Y157008D01*
X245568Y163055D02*
X245568Y162047D01*
X244556Y161039D01*
X243543Y161039D01*
X243037Y161543D01*
X242531Y161039D01*
X241519Y161039D01*
X240506Y162047D01*
X240506Y163055D01*
X241519Y164063D01*
X242531Y164063D01*
X243037Y163559D01*
X243543Y164063D01*
X244556Y164063D01*
X245568Y163055D01*
X243037Y161543D02*
X243037Y163559D01*
G36*
X230325Y136938D02*
X230325Y141638D01*
X239675Y141638D01*
X239675Y136938D01*
X230325Y136938D01*
G37*
X239675Y136938D01*
X239675Y155188D01*
X230325Y155188D01*
X230325Y136938D01*
X235000Y136938D02*
X235000Y129331D01*
X235000Y155188D02*
X235000Y162992D01*
X21969Y5904D02*
X22976Y4892D01*
X23984Y4892D01*
X24992Y5904D01*
X21969Y8941D01*
X22976Y9954D01*
X23984Y9954D01*
X24992Y8941D01*
X29528Y9954D02*
X26504Y9954D01*
X26504Y7929D01*
X28520Y7929D01*
X29528Y6917D01*
X29528Y5904D01*
X28520Y4892D01*
X26504Y4892D01*
X234528Y18444D02*
X233520Y17432D01*
X232512Y17432D01*
X231504Y18444D01*
X231504Y21481D01*
X232512Y22494D01*
X233520Y22494D01*
X234528Y21481D01*
X238055Y17432D02*
X237047Y17432D01*
X236039Y18444D01*
X236039Y19457D01*
X236543Y19963D01*
X236039Y20469D01*
X236039Y21481D01*
X237047Y22494D01*
X238055Y22494D01*
X239063Y21481D01*
X239063Y20469D01*
X238559Y19963D01*
X239063Y19457D01*
X239063Y18444D01*
X238055Y17432D01*
X236543Y19963D02*
X238559Y19963D01*
X230556Y106528D02*
X231568Y105520D01*
X231568Y104512D01*
X230556Y103504D01*
X227519Y103504D01*
X226506Y104512D01*
X226506Y105520D01*
X227519Y106528D01*
X230556Y108039D02*
X231568Y109047D01*
X231568Y110055D01*
X230556Y111063D01*
X228531Y111063D01*
X227519Y111063D01*
X226506Y110055D01*
X226506Y109047D01*
X227519Y108039D01*
X228531Y108039D01*
X229543Y109047D01*
X229543Y110055D01*
X228531Y111063D01*
X234504Y232432D02*
X234504Y237494D01*
X236520Y237494D01*
X237528Y236481D01*
X237528Y235975D01*
X236520Y234963D01*
X234504Y234963D01*
X235008Y234963D02*
X237528Y232432D01*
X239543Y236481D02*
X240551Y237494D01*
X240551Y232432D01*
X239039Y232432D02*
X242063Y232432D01*
X255556Y179504D02*
X256568Y180512D01*
X256568Y181520D01*
X255556Y182528D01*
X252519Y182528D01*
X251506Y181520D01*
X251506Y180512D01*
X252519Y179504D01*
X255556Y179504D01*
X255556Y181520D02*
X256568Y182528D01*
X252519Y184039D02*
X251506Y185047D01*
X251506Y186055D01*
X252519Y187063D01*
X253025Y187063D01*
X256568Y184039D01*
X256568Y187063D01*
X256062Y187063D01*
X250567Y192576D02*
X211315Y192576D01*
X211315Y174969D01*
X250567Y174969D01*
X250567Y192576D01*
G54D14*
X117000Y230000D02*
X137000Y230000D01*
X129500Y220000D02*
X137000Y220000D01*
X137000Y230000D01*
X117000Y220000D02*
X126167Y220000D01*
X127833Y220000D02*
X127833Y223333D01*
X128667Y220833D02*
X127833Y220000D01*
X117000Y220000D02*
X117000Y230000D01*
X244333Y197000D02*
X227667Y197000D01*
X227667Y207000D02*
X244333Y207000D01*
X227667Y197000D02*
X227667Y207000D01*
X244333Y207000D02*
X244333Y197000D01*
X217000Y213667D02*
X217000Y230333D01*
X227000Y230333D02*
X227000Y213667D01*
X217000Y230333D02*
X227000Y230333D01*
X227000Y213667D02*
X217000Y213667D01*
X36000Y12000D02*
X36000Y32000D01*
X46000Y24500D02*
X46000Y32000D01*
X36000Y32000D01*
X46000Y12000D02*
X46000Y21167D01*
X46000Y22833D02*
X42667Y22833D01*
X45167Y23667D02*
X46000Y22833D01*
X46000Y12000D02*
X36000Y12000D01*
X50000Y12000D02*
X50000Y32000D01*
X60000Y24500D02*
X60000Y32000D01*
X50000Y32000D01*
X60000Y12000D02*
X60000Y21167D01*
X60000Y22833D02*
X56667Y22833D01*
X59167Y23667D02*
X60000Y22833D01*
X60000Y12000D02*
X50000Y12000D01*
X65000Y12000D02*
X65000Y32000D01*
X75000Y24500D02*
X75000Y32000D01*
X65000Y32000D01*
X75000Y12000D02*
X75000Y21167D01*
X75000Y22833D02*
X71667Y22833D01*
X74167Y23667D02*
X75000Y22833D01*
X75000Y12000D02*
X65000Y12000D01*
X79000Y12000D02*
X79000Y32000D01*
X89000Y24500D02*
X89000Y32000D01*
X79000Y32000D01*
X89000Y12000D02*
X89000Y21167D01*
X89000Y22833D02*
X85667Y22833D01*
X88167Y23667D02*
X89000Y22833D01*
X89000Y12000D02*
X79000Y12000D01*
X187000Y225000D02*
X207000Y225000D01*
X199500Y215000D02*
X207000Y215000D01*
X207000Y225000D01*
X187000Y215000D02*
X196167Y215000D01*
X197833Y215000D02*
X197833Y218333D01*
X198667Y215833D02*
X197833Y215000D01*
X187000Y215000D02*
X187000Y225000D01*
X248000Y78000D02*
X248000Y58000D01*
X238000Y65500D02*
X238000Y58000D01*
X248000Y58000D01*
X238000Y78000D02*
X238000Y68833D01*
X238000Y67167D02*
X241333Y67167D01*
X238833Y66333D02*
X238000Y67167D01*
X238000Y78000D02*
X248000Y78000D01*
X212000Y25000D02*
X212000Y65000D01*
X222000Y25000D02*
X222000Y55000D01*
X222000Y65000D02*
X212000Y65000D01*
X222000Y57500D02*
X222000Y65000D01*
X222000Y55833D02*
X218667Y55833D01*
X221167Y56667D02*
X222000Y55833D01*
X222000Y25000D02*
X212000Y25000D01*
X212000Y132000D02*
X212000Y172000D01*
X222000Y132000D02*
X222000Y162000D01*
X222000Y172000D02*
X212000Y172000D01*
X222000Y164500D02*
X222000Y172000D01*
X222000Y162833D02*
X218667Y162833D01*
X221167Y163667D02*
X222000Y162833D01*
X222000Y132000D02*
X212000Y132000D01*
X253000Y153000D02*
X253000Y133000D01*
X243000Y140500D02*
X243000Y133000D01*
X253000Y133000D01*
X243000Y153000D02*
X243000Y143833D01*
X243000Y142167D02*
X246333Y142167D01*
X243833Y141333D02*
X243000Y142167D01*
X243000Y153000D02*
X253000Y153000D01*
X21000Y12000D02*
X21000Y32000D01*
X31000Y24500D02*
X31000Y32000D01*
X21000Y32000D01*
X31000Y12000D02*
X31000Y21167D01*
X31000Y22833D02*
X27667Y22833D01*
X30167Y23667D02*
X31000Y22833D01*
X31000Y12000D02*
X21000Y12000D01*
X243000Y230333D02*
X243000Y213667D01*
X233000Y213667D02*
X233000Y230333D01*
X243000Y213667D02*
X233000Y213667D01*
X233000Y230333D02*
X243000Y230333D01*
G54D15*
X228949Y33448D02*
X224450Y33448D01*
X226700Y34792D01*
X224450Y36136D01*
X228949Y36136D01*
X228049Y37479D02*
X228949Y38375D01*
X228949Y39271D01*
X228049Y40167D01*
X225350Y40167D01*
X224450Y39271D01*
X224450Y38375D01*
X225350Y37479D01*
X228049Y37479D01*
X228949Y42855D02*
X224450Y42855D01*
X224450Y41511D02*
X224450Y44199D01*
X228049Y45542D02*
X228949Y46438D01*
X228949Y47334D01*
X228049Y48230D01*
X225350Y48230D01*
X224450Y47334D01*
X224450Y46438D01*
X225350Y45542D01*
X228049Y45542D01*
X228949Y49574D02*
X224450Y49574D01*
X224450Y51366D01*
X225350Y52262D01*
X225800Y52262D01*
X226700Y51366D01*
X226700Y49574D01*
X226700Y50022D02*
X228949Y52262D01*
X224450Y53605D02*
X228949Y56293D01*
X228949Y53605D02*
X224450Y56293D01*
X227949Y131448D02*
X223450Y131448D01*
X225700Y132792D01*
X223450Y134136D01*
X227949Y134136D01*
X227049Y135479D02*
X227949Y136375D01*
X227949Y137271D01*
X227049Y138167D01*
X224350Y138167D01*
X223450Y137271D01*
X223450Y136375D01*
X224350Y135479D01*
X227049Y135479D01*
X227949Y140855D02*
X223450Y140855D01*
X223450Y139511D02*
X223450Y142199D01*
X227049Y143542D02*
X227949Y144438D01*
X227949Y145334D01*
X227049Y146230D01*
X224350Y146230D01*
X223450Y145334D01*
X223450Y144438D01*
X224350Y143542D01*
X227049Y143542D01*
X227949Y147574D02*
X223450Y147574D01*
X223450Y149366D01*
X224350Y150262D01*
X224800Y150262D01*
X225700Y149366D01*
X225700Y147574D01*
X225700Y148022D02*
X227949Y150262D01*
X223450Y151605D02*
X225700Y152949D01*
X223450Y154293D01*
X225700Y152949D02*
X227949Y152949D01*

M02*
