G04 Generated by Ultiboard 14.2 *
%FSLAX25Y25*%
%MOIN*%

%ADD10C,0.00001*%
%ADD11C,0.01000*%
%ADD12C,0.00004*%
%ADD13C,0.03150*%
%ADD14C,0.06299*%
%ADD15C,0.04724*%
%ADD16C,0.02362*%
%ADD17C,0.03937*%
%ADD18R,0.05512X0.03937*%
%ADD19C,0.03150*%
%ADD20R,0.03937X0.05512*%
%ADD21R,0.02251X0.05834*%
%ADD22C,0.01666*%
%ADD23R,0.05834X0.02251*%


G04 ColorRGB 008000 for the following layer *
%LNCopper Top*%
%LPD*%
G54D10*
G36*
X256471Y143000D02*
X256471Y143000D01*
X256471Y51467D01*
G75*
D01*
G02X248324Y25412I529J-14467*
G01*
X248324Y25412D01*
X242368Y16229D01*
X242791Y16229D01*
X242791Y12209D01*
X239760Y12209D01*
X233578Y2678D01*
X276324Y2678D01*
X276324Y238322D01*
X87796Y238322D01*
G74*
D01*
G02X88017Y236969I4040J1353*
G01*
X88017Y236969D01*
X88017Y233031D01*
G75*
D01*
G02X86750Y230000I-4261J0*
G01*
G74*
D01*
G02X87347Y229261I2994J3031*
G01*
X87347Y229261D01*
X102235Y229261D01*
X108987Y236013D01*
G75*
D01*
G02X112001Y237261I3013J-3013*
G01*
X112001Y237261D01*
X209000Y237261D01*
G74*
D01*
G02X212016Y236009I0J4261*
G01*
X212016Y236009D01*
X216265Y231761D01*
X217493Y231761D01*
G75*
D01*
G02X219083Y232141I1590J-3135*
G01*
X219083Y232141D01*
X224917Y232141D01*
G74*
D01*
G02X226507Y231761I0J3515*
G01*
X226507Y231761D01*
X233493Y231761D01*
G75*
D01*
G02X235083Y232141I1590J-3135*
G01*
X235083Y232141D01*
X240917Y232141D01*
G74*
D01*
G02X244432Y228626I0J3515*
G01*
X244432Y228626D01*
X244432Y226375D01*
G75*
D01*
G02X240917Y222859I-3515J0*
G01*
X240917Y222859D01*
X235083Y222859D01*
G75*
D01*
G02X233493Y223239I0J3516*
G01*
X233493Y223239D01*
X226507Y223239D01*
G74*
D01*
G02X224917Y222859I1590J3136*
G01*
X224917Y222859D01*
X219083Y222859D01*
G75*
D01*
G02X217493Y223239I0J3516*
G01*
X217493Y223239D01*
X214504Y223239D01*
G75*
D01*
G02X211487Y224487I-4J4261*
G01*
X211487Y224487D01*
X207235Y228739D01*
X138114Y228739D01*
G74*
D01*
G02X138229Y227756I4145J983*
G01*
X138229Y227756D01*
X138229Y227209D01*
X134209Y227209D01*
X134209Y228739D01*
X129791Y228739D01*
X129791Y227209D01*
X128229Y227209D01*
X128229Y222791D01*
X129791Y222791D01*
X129791Y217990D01*
G74*
D01*
G02X127000Y219250I240J4254*
G01*
G74*
D01*
G02X123969Y217983I3031J2994*
G01*
X123969Y217983D01*
X120031Y217983D01*
G75*
D01*
G02X115771Y222244I0J4261*
G01*
X115771Y222244D01*
X115771Y227756D01*
G74*
D01*
G02X115886Y228739I4260J0*
G01*
X115886Y228739D01*
X113765Y228739D01*
X107016Y221991D01*
G74*
D01*
G02X104000Y220739I3016J3009*
G01*
X104000Y220739D01*
X87347Y220739D01*
G74*
D01*
G02X86750Y220000I3591J2292*
G01*
G74*
D01*
G02X88017Y216969I2994J3031*
G01*
X88017Y216969D01*
X88017Y213031D01*
G75*
D01*
G02X86750Y210000I-4261J0*
G01*
G74*
D01*
G02X88017Y206969I2994J3031*
G01*
X88017Y206969D01*
X88017Y203031D01*
G75*
D01*
G02X86750Y200000I-4261J0*
G01*
G74*
D01*
G02X88017Y196969I2994J3031*
G01*
X88017Y196969D01*
X88017Y193031D01*
G75*
D01*
G02X86750Y190000I-4261J0*
G01*
G74*
D01*
G02X88017Y186969I2994J3031*
G01*
X88017Y186969D01*
X88017Y183031D01*
G75*
D01*
G02X86750Y180000I-4261J0*
G01*
G74*
D01*
G02X87357Y179246I2994J3031*
G01*
G74*
D01*
G02X90016Y178009I357J4246*
G01*
X90016Y178009D01*
X104009Y164016D01*
G74*
D01*
G02X105261Y161000I3009J3016*
G01*
X105261Y161000D01*
X105261Y56765D01*
X107697Y54329D01*
G74*
D01*
G02X108250Y55000I3547J2360*
G01*
G75*
D01*
G02X106983Y58031I2994J3031*
G01*
X106983Y58031D01*
X106983Y61969D01*
G74*
D01*
G02X108250Y65000I4261J0*
G01*
G75*
D01*
G02X106983Y68031I2994J3031*
G01*
X106983Y68031D01*
X106983Y71969D01*
G74*
D01*
G02X108250Y75000I4261J0*
G01*
G75*
D01*
G02X106983Y78031I2994J3031*
G01*
X106983Y78031D01*
X106983Y81969D01*
G74*
D01*
G02X108250Y85000I4261J0*
G01*
G74*
D01*
G02X106990Y87791I2994J3031*
G01*
X106990Y87791D01*
X111791Y87791D01*
X111791Y86229D01*
X116209Y86229D01*
X116209Y87791D01*
X121010Y87791D01*
G74*
D01*
G02X119750Y85000I4254J240*
G01*
G74*
D01*
G02X121017Y81969I2994J3031*
G01*
X121017Y81969D01*
X121017Y78031D01*
G75*
D01*
G02X119750Y75000I-4261J0*
G01*
G74*
D01*
G02X121017Y71969I2994J3031*
G01*
X121017Y71969D01*
X121017Y68031D01*
G75*
D01*
G02X119750Y65000I-4261J0*
G01*
G74*
D01*
G02X121017Y61969I2994J3031*
G01*
X121017Y61969D01*
X121017Y58031D01*
G75*
D01*
G02X119750Y55000I-4261J0*
G01*
G74*
D01*
G02X121017Y51969I2994J3031*
G01*
X121017Y51969D01*
X121017Y48031D01*
G75*
D01*
G02X119750Y45000I-4261J0*
G01*
G74*
D01*
G02X121017Y41969I2994J3031*
G01*
X121017Y41969D01*
X121017Y38031D01*
G75*
D01*
G02X119750Y35000I-4261J0*
G01*
G74*
D01*
G02X121017Y31969I2994J3031*
G01*
X121017Y31969D01*
X121017Y28031D01*
G75*
D01*
G02X119750Y25000I-4261J0*
G01*
G74*
D01*
G02X121017Y21969I2994J3031*
G01*
X121017Y21969D01*
X121017Y18031D01*
G75*
D01*
G02X119750Y15000I-4261J0*
G01*
G75*
D01*
G02X121017Y11969I-2994J-3031*
G01*
X121017Y11969D01*
X121017Y8031D01*
G74*
D01*
G02X116756Y3771I4261J0*
G01*
X116756Y3771D01*
X111244Y3771D01*
G75*
D01*
G02X106983Y8031I0J4260*
G01*
X106983Y8031D01*
X106983Y11969D01*
G74*
D01*
G02X108250Y15000I4261J0*
G01*
G75*
D01*
G02X106983Y18031I2994J3031*
G01*
X106983Y18031D01*
X106983Y21969D01*
G74*
D01*
G02X108250Y25000I4261J0*
G01*
G74*
D01*
G02X107653Y25739I2994J3031*
G01*
X107653Y25739D01*
X106000Y25739D01*
G75*
D01*
G02X104516Y26006I0J4261*
G01*
G74*
D01*
G02X102987Y26987I1484J3994*
G01*
X102987Y26987D01*
X87987Y41987D01*
G75*
D01*
G02X86739Y45006I3013J3013*
G01*
X86739Y45006D01*
X86739Y89990D01*
G74*
D01*
G02X83756Y88771I2983J3041*
G01*
X83756Y88771D01*
X78244Y88771D01*
G75*
D01*
G02X74261Y91520I0J4260*
G01*
X74261Y91520D01*
X74261Y32955D01*
G74*
D01*
G02X76347Y31261I1505J3986*
G01*
X76347Y31261D01*
X77653Y31261D01*
G75*
D01*
G02X81244Y33229I3591J-2292*
G01*
X81244Y33229D01*
X86756Y33229D01*
G74*
D01*
G02X91017Y28969I0J4260*
G01*
X91017Y28969D01*
X91017Y25031D01*
G75*
D01*
G02X89750Y22000I-4261J0*
G01*
G74*
D01*
G02X91010Y19209I2994J3031*
G01*
X91010Y19209D01*
X86209Y19209D01*
X86209Y20771D01*
X81791Y20771D01*
X81791Y19209D01*
X72209Y19209D01*
X72209Y20771D01*
X67791Y20771D01*
X67791Y19209D01*
X62990Y19209D01*
G74*
D01*
G02X64250Y22000I4254J240*
G01*
G75*
D01*
G02X62983Y25031I2994J3031*
G01*
X62983Y25031D01*
X62983Y28969D01*
G74*
D01*
G02X65739Y32955I4261J0*
G01*
X65739Y32955D01*
X65739Y51714D01*
X59261Y45235D01*
X59261Y32955D01*
G74*
D01*
G02X62017Y28969I1505J3986*
G01*
X62017Y28969D01*
X62017Y25031D01*
G75*
D01*
G02X60750Y22000I-4261J0*
G01*
G74*
D01*
G02X62010Y19209I2994J3031*
G01*
X62010Y19209D01*
X57209Y19209D01*
X57209Y20771D01*
X52791Y20771D01*
X52791Y19209D01*
X43209Y19209D01*
X43209Y20771D01*
X38791Y20771D01*
X38791Y19209D01*
X33990Y19209D01*
G74*
D01*
G02X35250Y22000I4254J240*
G01*
G75*
D01*
G02X33983Y25031I2994J3031*
G01*
X33983Y25031D01*
X33983Y28969D01*
G75*
D01*
G02X38244Y33229I4261J0*
G01*
X38244Y33229D01*
X43756Y33229D01*
G74*
D01*
G02X47347Y31261I0J4260*
G01*
X47347Y31261D01*
X48653Y31261D01*
G74*
D01*
G02X50739Y32955I3591J2292*
G01*
X50739Y32955D01*
X50739Y46994D01*
G75*
D01*
G02X51987Y50013I4261J6*
G01*
X51987Y50013D01*
X58739Y56765D01*
X58739Y84958D01*
G74*
D01*
G02X58009Y83984I3739J2042*
G01*
X58009Y83984D01*
X30261Y56235D01*
X30261Y32955D01*
G74*
D01*
G02X33017Y28969I1505J3986*
G01*
X33017Y28969D01*
X33017Y25031D01*
G75*
D01*
G02X31750Y22000I-4261J0*
G01*
G74*
D01*
G02X33010Y19209I2994J3031*
G01*
X33010Y19209D01*
X28209Y19209D01*
X28209Y20771D01*
X23791Y20771D01*
X23791Y19209D01*
X18990Y19209D01*
G74*
D01*
G02X20250Y22000I4254J240*
G01*
G75*
D01*
G02X18983Y25031I2994J3031*
G01*
X18983Y25031D01*
X18983Y28969D01*
G74*
D01*
G02X21739Y32955I4261J0*
G01*
X21739Y32955D01*
X21739Y57993D01*
G75*
D01*
G02X22987Y61013I4261J7*
G01*
X22987Y61013D01*
X50739Y88765D01*
X50739Y132225D01*
G74*
D01*
G02X50289Y131704I3739J2775*
G01*
X50289Y131704D01*
X40296Y121711D01*
G74*
D01*
G02X38555Y120611I3296J3289*
G01*
G75*
D01*
G02X36996Y120344I-1555J4389*
G01*
X36996Y120344D01*
X27062Y120344D01*
G74*
D01*
G02X26750Y120000I3306J2687*
G01*
G74*
D01*
G02X28017Y116969I2994J3031*
G01*
X28017Y116969D01*
X28017Y113031D01*
G75*
D01*
G02X26750Y110000I-4261J0*
G01*
G74*
D01*
G02X28010Y107209I2994J3031*
G01*
X28010Y107209D01*
X23209Y107209D01*
X23209Y108771D01*
X18791Y108771D01*
X18791Y107209D01*
X13990Y107209D01*
G74*
D01*
G02X15250Y110000I4254J240*
G01*
G75*
D01*
G02X13983Y113031I2994J3031*
G01*
X13983Y113031D01*
X13983Y116969D01*
G74*
D01*
G02X15250Y120000I4261J0*
G01*
G75*
D01*
G02X13983Y123031I2994J3031*
G01*
X13983Y123031D01*
X13983Y126969D01*
G74*
D01*
G02X15250Y130000I4261J0*
G01*
G75*
D01*
G02X13983Y133031I2994J3031*
G01*
X13983Y133031D01*
X13983Y136969D01*
G74*
D01*
G02X15250Y140000I4261J0*
G01*
G75*
D01*
G02X13983Y143031I2994J3031*
G01*
X13983Y143031D01*
X13983Y146969D01*
G74*
D01*
G02X15250Y150000I4261J0*
G01*
G75*
D01*
G02X13983Y153031I2994J3031*
G01*
X13983Y153031D01*
X13983Y156969D01*
G74*
D01*
G02X15250Y160000I4261J0*
G01*
G75*
D01*
G02X13983Y163031I2994J3031*
G01*
X13983Y163031D01*
X13983Y166969D01*
G74*
D01*
G02X15250Y170000I4261J0*
G01*
G75*
D01*
G02X13983Y173031I2994J3031*
G01*
X13983Y173031D01*
X13983Y176969D01*
G74*
D01*
G02X15250Y180000I4261J0*
G01*
G75*
D01*
G02X13983Y183031I2994J3031*
G01*
X13983Y183031D01*
X13983Y186969D01*
G74*
D01*
G02X15250Y190000I4261J0*
G01*
G75*
D01*
G02X13983Y193031I2994J3031*
G01*
X13983Y193031D01*
X13983Y196969D01*
G74*
D01*
G02X15250Y200000I4261J0*
G01*
G75*
D01*
G02X13983Y203031I2994J3031*
G01*
X13983Y203031D01*
X13983Y206969D01*
G74*
D01*
G02X15250Y210000I4261J0*
G01*
G75*
D01*
G02X13983Y213031I2994J3031*
G01*
X13983Y213031D01*
X13983Y216969D01*
G74*
D01*
G02X15250Y220000I4261J0*
G01*
G75*
D01*
G02X13983Y223031I2994J3031*
G01*
X13983Y223031D01*
X13983Y226969D01*
G74*
D01*
G02X15250Y230000I4261J0*
G01*
G75*
D01*
G02X13983Y233031I2994J3031*
G01*
X13983Y233031D01*
X13983Y236969D01*
G74*
D01*
G02X14204Y238322I4261J0*
G01*
X14204Y238322D01*
X-16323Y238322D01*
X-16323Y2678D01*
X191529Y2678D01*
X191529Y143000D01*
G75*
D01*
G02X195000Y146471I3471J0*
G01*
X195000Y146471D01*
X196983Y146471D01*
X196983Y148969D01*
G74*
D01*
G02X198250Y152000I4261J0*
G01*
G75*
D01*
G02X196983Y155031I2994J3031*
G01*
X196983Y155031D01*
X196983Y158969D01*
G74*
D01*
G02X198250Y162000I4261J0*
G01*
G75*
D01*
G02X196983Y165031I2994J3031*
G01*
X196983Y165031D01*
X196983Y168969D01*
G74*
D01*
G02X198250Y172000I4261J0*
G01*
G74*
D01*
G02X196990Y174791I2994J3031*
G01*
X196990Y174791D01*
X201791Y174791D01*
X201791Y173229D01*
X206209Y173229D01*
X206209Y174791D01*
X211010Y174791D01*
G74*
D01*
G02X210412Y172843I4254J240*
G01*
X210412Y172843D01*
X212472Y172843D01*
G75*
D01*
G02X214244Y173229I1772J-3874*
G01*
X214244Y173229D01*
X219756Y173229D01*
G74*
D01*
G02X224017Y168969I0J4260*
G01*
X224017Y168969D01*
X224017Y165031D01*
G75*
D01*
G02X222750Y162000I-4261J0*
G01*
G74*
D01*
G02X224017Y158969I2994J3031*
G01*
X224017Y158969D01*
X224017Y155031D01*
G75*
D01*
G02X222750Y152000I-4261J0*
G01*
G74*
D01*
G02X224017Y148969I2994J3031*
G01*
X224017Y148969D01*
X224017Y146471D01*
X240983Y146471D01*
X240983Y149969D01*
G74*
D01*
G02X242948Y153558I4261J0*
G01*
X242948Y153558D01*
X242948Y158907D01*
X240193Y161663D01*
G74*
D01*
G02X237756Y160897I2437J3494*
G01*
X237756Y160897D01*
X232244Y160897D01*
G75*
D01*
G02X227983Y165157I0J4260*
G01*
X227983Y165157D01*
X227983Y169094D01*
G74*
D01*
G02X229000Y171856I4261J0*
G01*
X229000Y171856D01*
X227428Y173428D01*
G75*
D01*
G02X225948Y177007I3572J3572*
G01*
X225948Y177007D01*
X225948Y178729D01*
G74*
D01*
G02X225882Y178794I2965J3059*
G01*
G74*
D01*
G02X223091Y177534I3032J2994*
G01*
X223091Y177534D01*
X223091Y182335D01*
X224653Y182335D01*
X224653Y186753D01*
X223091Y186753D01*
X223091Y191554D01*
G74*
D01*
G02X225882Y190294I241J4254*
G01*
G75*
D01*
G02X228913Y191561I3031J-2994*
G01*
X228913Y191561D01*
X232850Y191561D01*
G74*
D01*
G02X235882Y190294I0J4261*
G01*
G74*
D01*
G02X237017Y191115I3031J2994*
G01*
X237017Y191115D01*
X237017Y193538D01*
G75*
D01*
G02X237635Y195641I3865J6*
G01*
X237635Y195641D01*
X237635Y196880D01*
G75*
D01*
G02X236859Y199083I2740J2203*
G01*
X236859Y199083D01*
X236859Y204917D01*
G74*
D01*
G02X237539Y206995I3516J0*
G01*
X237539Y206995D01*
X235267Y209267D01*
G74*
D01*
G02X234135Y211989I2733J2733*
G01*
G75*
D01*
G02X231568Y215375I948J3386*
G01*
X231568Y215375D01*
X231568Y217626D01*
G75*
D01*
G02X235083Y221141I3515J0*
G01*
X235083Y221141D01*
X240917Y221141D01*
G74*
D01*
G02X244432Y217626I0J3515*
G01*
X244432Y217626D01*
X244432Y215375D01*
G75*
D01*
G02X242955Y212511I-3515J0*
G01*
X242955Y212511D01*
X244230Y211236D01*
G74*
D01*
G02X245365Y208500I2730J2736*
G01*
X245365Y208500D01*
X245365Y207120D01*
G74*
D01*
G02X246141Y204917I2739J2203*
G01*
X246141Y204917D01*
X246141Y199083D01*
G75*
D01*
G02X245365Y196880I-3515J0*
G01*
X245365Y196880D01*
X245365Y194162D01*
G75*
D01*
G02X244747Y192066I-3865J0*
G01*
X244747Y192066D01*
X244747Y191115D01*
G74*
D01*
G02X247111Y187300I1897J3815*
G01*
X247111Y187300D01*
X247111Y181788D01*
G75*
D01*
G02X242850Y177528I-4261J0*
G01*
X242850Y177528D01*
X238913Y177528D01*
G75*
D01*
G02X237299Y177845I0J4260*
G01*
X237299Y177845D01*
X238568Y176576D01*
G74*
D01*
G02X240052Y173000I3568J3576*
G01*
X240052Y173000D01*
X240052Y172684D01*
G74*
D01*
G02X240823Y172052I2296J3590*
G01*
X240823Y172052D01*
X242000Y172052D01*
G74*
D01*
G02X245576Y170568I0J5052*
G01*
X245576Y170568D01*
X251568Y164576D01*
G74*
D01*
G02X253052Y161000I3568J3576*
G01*
X253052Y161000D01*
X253052Y153558D01*
G74*
D01*
G02X255017Y149969I2296J3589*
G01*
X255017Y149969D01*
X255017Y146031D01*
G75*
D01*
G02X255012Y145829I-4261J0*
G01*
G74*
D01*
G02X256471Y143000I2012J2829*
G01*
D02*
G37*
%LPC*%
G36*
X261785Y206634D02*
G75*
D01*
G02X261785Y206634I-1785J14366*
G01*
D02*
G37*
G36*
X121017Y185031D02*
G75*
D01*
G02X119750Y182000I-4261J0*
G01*
G74*
D01*
G02X121017Y178969I2994J3031*
G01*
X121017Y178969D01*
X121017Y175031D01*
G75*
D01*
G02X119750Y172000I-4261J0*
G01*
G74*
D01*
G02X121010Y169209I2994J3031*
G01*
X121010Y169209D01*
X116209Y169209D01*
X116209Y170771D01*
X111791Y170771D01*
X111791Y169209D01*
X106990Y169209D01*
G74*
D01*
G02X108250Y172000I4254J240*
G01*
G75*
D01*
G02X106983Y175031I2994J3031*
G01*
X106983Y175031D01*
X106983Y178969D01*
G74*
D01*
G02X108250Y182000I4261J0*
G01*
G75*
D01*
G02X106983Y185031I2994J3031*
G01*
X106983Y185031D01*
X106983Y188969D01*
G74*
D01*
G02X108250Y192000I4261J0*
G01*
G74*
D01*
G02X106990Y194791I2994J3031*
G01*
X106990Y194791D01*
X111791Y194791D01*
X111791Y193229D01*
X116209Y193229D01*
X116209Y194791D01*
X121010Y194791D01*
G74*
D01*
G02X119750Y192000I4254J240*
G01*
G74*
D01*
G02X121017Y188969I2994J3031*
G01*
X121017Y188969D01*
X121017Y185031D01*
D02*
G37*
G36*
X221775Y186298D02*
G75*
D01*
G02X221775Y186298I-893J-1754*
G01*
D02*
G37*
G36*
X205839Y186298D02*
G75*
D01*
G02X205839Y186298I-1839J702*
G01*
D02*
G37*
G36*
X23756Y88771D02*
X23756Y88771D01*
X18244Y88771D01*
G75*
D01*
G02X13983Y93031I0J4260*
G01*
X13983Y93031D01*
X13983Y96969D01*
G74*
D01*
G02X15250Y100000I4261J0*
G01*
G74*
D01*
G02X13990Y102791I2994J3031*
G01*
X13990Y102791D01*
X18791Y102791D01*
X18791Y101229D01*
X23209Y101229D01*
X23209Y102791D01*
X28010Y102791D01*
G74*
D01*
G02X26750Y100000I4254J240*
G01*
G74*
D01*
G02X28017Y96969I2994J3031*
G01*
X28017Y96969D01*
X28017Y93031D01*
G75*
D01*
G02X23756Y88771I-4261J0*
G01*
D02*
G37*
G36*
X114774Y91810D02*
G75*
D01*
G02X114774Y91810I-774J-1810*
G01*
D02*
G37*
G36*
X72756Y10771D02*
X72756Y10771D01*
X72209Y10771D01*
X72209Y14791D01*
X81791Y14791D01*
X81791Y10771D01*
X81244Y10771D01*
G75*
D01*
G02X77000Y14656I0J4260*
G01*
G74*
D01*
G02X72756Y10771I4244J375*
G01*
D02*
G37*
G36*
X242244Y3771D02*
G75*
D01*
G02X237990Y7791I0J4260*
G01*
X237990Y7791D01*
X242791Y7791D01*
X242791Y3771D01*
X242244Y3771D01*
D02*
G37*
G36*
X247756Y3771D02*
X247756Y3771D01*
X247209Y3771D01*
X247209Y7791D01*
X252010Y7791D01*
G74*
D01*
G02X247756Y3771I4254J240*
G01*
D02*
G37*
G36*
X243031Y10000D02*
G75*
D01*
G02X243031Y10000I1969J0*
G01*
D02*
G37*
G36*
X252010Y12209D02*
X252010Y12209D01*
X247209Y12209D01*
X247209Y16229D01*
X247756Y16229D01*
G74*
D01*
G02X252010Y12209I0J4260*
G01*
D02*
G37*
G36*
X-15476Y223000D02*
G75*
D01*
G02X-15476Y223000I14476J0*
G01*
D02*
G37*
G36*
X112031Y197000D02*
G75*
D01*
G02X112031Y197000I1969J0*
G01*
D02*
G37*
G36*
X106990Y199209D02*
G74*
D01*
G02X108250Y202000I4254J240*
G01*
G75*
D01*
G02X106983Y205031I2994J3031*
G01*
X106983Y205031D01*
X106983Y208969D01*
G75*
D01*
G02X111244Y213229I4261J0*
G01*
X111244Y213229D01*
X116756Y213229D01*
G74*
D01*
G02X121017Y208969I0J4260*
G01*
X121017Y208969D01*
X121017Y205031D01*
G75*
D01*
G02X119750Y202000I-4261J0*
G01*
G74*
D01*
G02X121010Y199209I2994J3031*
G01*
X121010Y199209D01*
X116209Y199209D01*
X116209Y200771D01*
X111791Y200771D01*
X111791Y199209D01*
X106990Y199209D01*
D02*
G37*
G36*
X134209Y217990D02*
X134209Y217990D01*
X134209Y222791D01*
X138229Y222791D01*
X138229Y222244D01*
G75*
D01*
G02X134209Y217990I-4260J0*
G01*
D02*
G37*
G36*
X130031Y225000D02*
G75*
D01*
G02X130031Y225000I1969J0*
G01*
D02*
G37*
G36*
X214653Y187300D02*
G74*
D01*
G02X218673Y191554I4260J0*
G01*
X218673Y191554D01*
X218673Y186753D01*
X214653Y186753D01*
X214653Y187300D01*
D02*
G37*
G36*
X235085Y198458D02*
X235085Y198458D01*
X232529Y202000D01*
X235085Y205542D01*
G74*
D01*
G02X235141Y204917I3459J625*
G01*
X235141Y204917D01*
X235141Y199083D01*
G75*
D01*
G02X235085Y198458I-3515J0*
G01*
D02*
G37*
G36*
X202031Y197000D02*
G75*
D01*
G02X202031Y197000I1969J0*
G01*
D02*
G37*
G36*
X196990Y189209D02*
G74*
D01*
G02X198250Y192000I4254J240*
G01*
G74*
D01*
G02X196990Y194791I2994J3031*
G01*
X196990Y194791D01*
X201791Y194791D01*
X201791Y189209D01*
X196990Y189209D01*
D02*
G37*
G36*
X211010Y189209D02*
X211010Y189209D01*
X206209Y189209D01*
X206209Y194791D01*
X211010Y194791D01*
G74*
D01*
G02X209750Y192000I4254J240*
G01*
G74*
D01*
G02X211010Y189209I2994J3031*
G01*
D02*
G37*
G36*
X232930Y195819D02*
G74*
D01*
G02X231626Y195568I1304J3264*
G01*
X231626Y195568D01*
X229375Y195568D01*
G75*
D01*
G02X228070Y195819I0J3515*
G01*
X228070Y195819D01*
X230500Y199187D01*
X232930Y195819D01*
D02*
G37*
G36*
X216880Y220365D02*
G75*
D01*
G02X219083Y221141I2203J-2739*
G01*
X219083Y221141D01*
X224917Y221141D01*
G74*
D01*
G02X228432Y217626I0J3515*
G01*
X228432Y217626D01*
X228432Y215375D01*
G75*
D01*
G02X224917Y211859I-3515J0*
G01*
X224917Y211859D01*
X219083Y211859D01*
G75*
D01*
G02X216880Y212635I0J3516*
G01*
X216880Y212635D01*
X212501Y212635D01*
G75*
D01*
G02X209767Y213767I-1J3865*
G01*
X209767Y213767D01*
X207909Y215625D01*
G74*
D01*
G02X205395Y213229I3940J1619*
G01*
X205395Y213229D01*
X206756Y213229D01*
G74*
D01*
G02X211017Y208969I0J4260*
G01*
X211017Y208969D01*
X211017Y205031D01*
G75*
D01*
G02X209750Y202000I-4261J0*
G01*
G74*
D01*
G02X211010Y199209I2994J3031*
G01*
X211010Y199209D01*
X206209Y199209D01*
X206209Y200771D01*
X201791Y200771D01*
X201791Y199209D01*
X196990Y199209D01*
G74*
D01*
G02X198250Y202000I4254J240*
G01*
G75*
D01*
G02X196983Y205031I2994J3031*
G01*
X196983Y205031D01*
X196983Y208969D01*
G74*
D01*
G02X199831Y212988I4261J0*
G01*
G74*
D01*
G02X197000Y214250I200J4256*
G01*
G74*
D01*
G02X194209Y212990I3031J2994*
G01*
X194209Y212990D01*
X194209Y217791D01*
X195771Y217791D01*
X195771Y222209D01*
X194209Y222209D01*
X194209Y227010D01*
G74*
D01*
G02X197000Y225750I240J4254*
G01*
G75*
D01*
G02X200031Y227017I3031J-2994*
G01*
X200031Y227017D01*
X203969Y227017D01*
G74*
D01*
G02X208082Y223865I0J4261*
G01*
X208082Y223865D01*
X209000Y223865D01*
G74*
D01*
G02X211736Y222730I0J3865*
G01*
X211736Y222730D01*
X214101Y220365D01*
X216880Y220365D01*
D02*
G37*
G36*
X225915Y205542D02*
X225915Y205542D01*
X228471Y202000D01*
X225915Y198458D01*
G75*
D01*
G02X225859Y199083I3460J625*
G01*
X225859Y199083D01*
X225859Y204917D01*
G74*
D01*
G02X225915Y205542I3516J0*
G01*
D02*
G37*
G36*
X232930Y208181D02*
X232930Y208181D01*
X230500Y204813D01*
X228070Y208181D01*
G75*
D01*
G02X229375Y208432I1305J-3264*
G01*
X229375Y208432D01*
X231626Y208432D01*
G74*
D01*
G02X232930Y208181I0J3515*
G01*
D02*
G37*
G36*
X185771Y217244D02*
X185771Y217244D01*
X185771Y217791D01*
X189791Y217791D01*
X189791Y212990D01*
G75*
D01*
G02X185771Y217244I240J4254*
G01*
D02*
G37*
G36*
X190031Y220000D02*
G75*
D01*
G02X190031Y220000I1969J0*
G01*
D02*
G37*
G36*
X185771Y222756D02*
G74*
D01*
G02X189791Y227010I4260J0*
G01*
X189791Y227010D01*
X189791Y222209D01*
X185771Y222209D01*
X185771Y222756D01*
D02*
G37*
G36*
X19031Y105000D02*
G75*
D01*
G02X19031Y105000I1969J0*
G01*
D02*
G37*
G36*
X214653Y181788D02*
X214653Y181788D01*
X214653Y182335D01*
X218673Y182335D01*
X218673Y177534D01*
G75*
D01*
G02X214653Y181788I240J4254*
G01*
D02*
G37*
G36*
X211010Y179209D02*
X211010Y179209D01*
X206209Y179209D01*
X206209Y184791D01*
X211010Y184791D01*
G74*
D01*
G02X209750Y182000I4254J240*
G01*
G74*
D01*
G02X211010Y179209I2994J3031*
G01*
D02*
G37*
G36*
X196990Y179209D02*
G74*
D01*
G02X198250Y182000I4254J240*
G01*
G74*
D01*
G02X196990Y184791I2994J3031*
G01*
X196990Y184791D01*
X201791Y184791D01*
X201791Y179209D01*
X196990Y179209D01*
D02*
G37*
G36*
X202031Y177000D02*
G75*
D01*
G02X202031Y177000I1969J0*
G01*
D02*
G37*
G36*
X106990Y92209D02*
G74*
D01*
G02X108250Y95000I4254J240*
G01*
G75*
D01*
G02X106983Y98031I2994J3031*
G01*
X106983Y98031D01*
X106983Y101969D01*
G75*
D01*
G02X111244Y106229I4261J0*
G01*
X111244Y106229D01*
X116756Y106229D01*
G74*
D01*
G02X121017Y101969I0J4260*
G01*
X121017Y101969D01*
X121017Y98031D01*
G75*
D01*
G02X119750Y95000I-4261J0*
G01*
G74*
D01*
G02X121010Y92209I2994J3031*
G01*
X121010Y92209D01*
X116209Y92209D01*
X116209Y93771D01*
X111791Y93771D01*
X111791Y92209D01*
X106990Y92209D01*
D02*
G37*
G36*
X106990Y164791D02*
X106990Y164791D01*
X111791Y164791D01*
X111791Y163229D01*
X116209Y163229D01*
X116209Y164791D01*
X121010Y164791D01*
G74*
D01*
G02X119750Y162000I4254J240*
G01*
G74*
D01*
G02X121017Y158969I2994J3031*
G01*
X121017Y158969D01*
X121017Y155031D01*
G75*
D01*
G02X119750Y152000I-4261J0*
G01*
G74*
D01*
G02X121017Y148969I2994J3031*
G01*
X121017Y148969D01*
X121017Y145031D01*
G75*
D01*
G02X119750Y142000I-4261J0*
G01*
G74*
D01*
G02X121017Y138969I2994J3031*
G01*
X121017Y138969D01*
X121017Y135031D01*
G75*
D01*
G02X119750Y132000I-4261J0*
G01*
G74*
D01*
G02X121017Y128969I2994J3031*
G01*
X121017Y128969D01*
X121017Y125031D01*
G75*
D01*
G02X119750Y122000I-4261J0*
G01*
G74*
D01*
G02X121017Y118969I2994J3031*
G01*
X121017Y118969D01*
X121017Y115031D01*
G75*
D01*
G02X116756Y110771I-4261J0*
G01*
X116756Y110771D01*
X111244Y110771D01*
G75*
D01*
G02X106983Y115031I0J4260*
G01*
X106983Y115031D01*
X106983Y118969D01*
G74*
D01*
G02X108250Y122000I4261J0*
G01*
G75*
D01*
G02X106983Y125031I2994J3031*
G01*
X106983Y125031D01*
X106983Y128969D01*
G74*
D01*
G02X108250Y132000I4261J0*
G01*
G75*
D01*
G02X106983Y135031I2994J3031*
G01*
X106983Y135031D01*
X106983Y138969D01*
G74*
D01*
G02X108250Y142000I4261J0*
G01*
G75*
D01*
G02X106983Y145031I2994J3031*
G01*
X106983Y145031D01*
X106983Y148969D01*
G74*
D01*
G02X108250Y152000I4261J0*
G01*
G75*
D01*
G02X106983Y155031I2994J3031*
G01*
X106983Y155031D01*
X106983Y158969D01*
G74*
D01*
G02X108250Y162000I4261J0*
G01*
G74*
D01*
G02X106990Y164791I2994J3031*
G01*
D02*
G37*
G36*
X112031Y167000D02*
G75*
D01*
G02X112031Y167000I1969J0*
G01*
D02*
G37*
G36*
X-14476Y19000D02*
G75*
D01*
G02X-14476Y19000I14476J0*
G01*
D02*
G37*
G36*
X18990Y14791D02*
X18990Y14791D01*
X23791Y14791D01*
X23791Y10771D01*
X23244Y10771D01*
G75*
D01*
G02X18990Y14791I0J4260*
G01*
D02*
G37*
G36*
X28756Y10771D02*
X28756Y10771D01*
X28209Y10771D01*
X28209Y14791D01*
X33010Y14791D01*
G74*
D01*
G02X28756Y10771I4254J240*
G01*
D02*
G37*
G36*
X24031Y17000D02*
G75*
D01*
G02X24031Y17000I1969J0*
G01*
D02*
G37*
G36*
X39031Y17000D02*
G75*
D01*
G02X39031Y17000I1969J0*
G01*
D02*
G37*
G36*
X33990Y14791D02*
X33990Y14791D01*
X38791Y14791D01*
X38791Y10771D01*
X38244Y10771D01*
G75*
D01*
G02X33990Y14791I0J4260*
G01*
D02*
G37*
G36*
X43756Y10771D02*
X43756Y10771D01*
X43209Y10771D01*
X43209Y14791D01*
X52791Y14791D01*
X52791Y10771D01*
X52244Y10771D01*
G75*
D01*
G02X48000Y14656I0J4260*
G01*
G74*
D01*
G02X43756Y10771I4244J375*
G01*
D02*
G37*
G36*
X53031Y17000D02*
G75*
D01*
G02X53031Y17000I1969J0*
G01*
D02*
G37*
G36*
X62990Y14791D02*
X62990Y14791D01*
X67791Y14791D01*
X67791Y10771D01*
X67244Y10771D01*
G75*
D01*
G02X62990Y14791I0J4260*
G01*
D02*
G37*
G36*
X57756Y10771D02*
X57756Y10771D01*
X57209Y10771D01*
X57209Y14791D01*
X62010Y14791D01*
G74*
D01*
G02X57756Y10771I4254J240*
G01*
D02*
G37*
G36*
X68031Y17000D02*
G75*
D01*
G02X68031Y17000I1969J0*
G01*
D02*
G37*
G36*
X86756Y10771D02*
X86756Y10771D01*
X86209Y10771D01*
X86209Y14791D01*
X91010Y14791D01*
G74*
D01*
G02X86756Y10771I4254J240*
G01*
D02*
G37*
G36*
X82031Y17000D02*
G75*
D01*
G02X82031Y17000I1969J0*
G01*
D02*
G37*
%LPD*%
G36*
X230615Y4491D02*
X230615Y4491D01*
X229629Y2969D01*
X195000Y2969D01*
X195000Y143000D01*
X197171Y143000D01*
G74*
D01*
G03X197849Y142000I4073J2031*
G01*
G74*
D01*
G03X196693Y138969I3395J3031*
G01*
X196693Y138969D01*
X196693Y135031D01*
G75*
D01*
G03X197849Y132000I4551J0*
G01*
G74*
D01*
G03X196693Y128969I3395J3031*
G01*
X196693Y128969D01*
X196693Y125031D01*
G75*
D01*
G03X197849Y122000I4551J0*
G01*
G74*
D01*
G03X196706Y119312I3395J3031*
G01*
X196706Y119312D01*
X201688Y119312D01*
X201688Y120480D01*
X206312Y120480D01*
X206312Y119312D01*
X211294Y119312D01*
G74*
D01*
G03X210151Y122000I4538J343*
G01*
G75*
D01*
G03X211307Y125031I-3395J3031*
G01*
X211307Y125031D01*
X211307Y128969D01*
G74*
D01*
G03X210893Y130866I4551J0*
G01*
X210893Y130866D01*
X212410Y130866D01*
G75*
D01*
G03X214244Y130480I1834J4165*
G01*
X214244Y130480D01*
X219756Y130480D01*
G75*
D01*
G03X224307Y135031I0J4551*
G01*
X224307Y135031D01*
X224307Y138969D01*
G74*
D01*
G03X223151Y142000I4551J0*
G01*
G74*
D01*
G03X223829Y143000I3395J3031*
G01*
X223829Y143000D01*
X241849Y143000D01*
G74*
D01*
G03X240706Y140312I3395J3031*
G01*
X240706Y140312D01*
X245688Y140312D01*
X245688Y141480D01*
X250312Y141480D01*
X250312Y140312D01*
X253000Y140312D01*
X253000Y135688D01*
X250312Y135688D01*
X250312Y131480D01*
X250756Y131480D01*
G74*
D01*
G03X253000Y132072I0J4551*
G01*
X253000Y132072D01*
X253000Y51214D01*
G75*
D01*
G03X245609Y27605I4000J-14214*
G01*
X245609Y27605D01*
X232155Y6864D01*
G74*
D01*
G03X232294Y7688I4399J1167*
G01*
X232294Y7688D01*
X227312Y7688D01*
X227312Y3480D01*
X227756Y3480D01*
G74*
D01*
G03X230615Y4491I0J4551*
G01*
D02*
G37*
%LPC*%
G36*
X196693Y88031D02*
G75*
D01*
G03X197849Y85000I4551J0*
G01*
G74*
D01*
G03X196693Y81969I3395J3031*
G01*
X196693Y81969D01*
X196693Y78031D01*
G75*
D01*
G03X197849Y75000I4551J0*
G01*
G74*
D01*
G03X196693Y71969I3395J3031*
G01*
X196693Y71969D01*
X196693Y68031D01*
G75*
D01*
G03X197849Y65000I4551J0*
G01*
G74*
D01*
G03X196693Y61969I3395J3031*
G01*
X196693Y61969D01*
X196693Y58031D01*
G75*
D01*
G03X197849Y55000I4551J0*
G01*
G74*
D01*
G03X196693Y51969I3395J3031*
G01*
X196693Y51969D01*
X196693Y48031D01*
G75*
D01*
G03X197849Y45000I4551J0*
G01*
G74*
D01*
G03X196693Y41969I3395J3031*
G01*
X196693Y41969D01*
X196693Y38031D01*
G75*
D01*
G03X197849Y35000I4551J0*
G01*
G74*
D01*
G03X196693Y31969I3395J3031*
G01*
X196693Y31969D01*
X196693Y28031D01*
G75*
D01*
G03X197849Y25000I4551J0*
G01*
G74*
D01*
G03X196693Y21969I3395J3031*
G01*
X196693Y21969D01*
X196693Y18031D01*
G75*
D01*
G03X197849Y15000I4551J0*
G01*
G74*
D01*
G03X196706Y12312I3395J3031*
G01*
X196706Y12312D01*
X201688Y12312D01*
X201688Y13480D01*
X206312Y13480D01*
X206312Y12312D01*
X211294Y12312D01*
G74*
D01*
G03X210151Y15000I4538J343*
G01*
G75*
D01*
G03X211307Y18031I-3395J3031*
G01*
X211307Y18031D01*
X211307Y21969D01*
G74*
D01*
G03X210893Y23866I4551J0*
G01*
X210893Y23866D01*
X212410Y23866D01*
G75*
D01*
G03X214244Y23480I1834J4165*
G01*
X214244Y23480D01*
X219756Y23480D01*
G75*
D01*
G03X224307Y28031I0J4551*
G01*
X224307Y28031D01*
X224307Y31969D01*
G74*
D01*
G03X223151Y35000I4551J0*
G01*
G75*
D01*
G03X224307Y38031I-3395J3031*
G01*
X224307Y38031D01*
X224307Y41969D01*
G74*
D01*
G03X223151Y45000I4551J0*
G01*
G75*
D01*
G03X224307Y48031I-3395J3031*
G01*
X224307Y48031D01*
X224307Y51969D01*
G74*
D01*
G03X223151Y55000I4551J0*
G01*
G75*
D01*
G03X224307Y58031I-3395J3031*
G01*
X224307Y58031D01*
X224307Y61969D01*
G74*
D01*
G03X219756Y66520I4551J0*
G01*
X219756Y66520D01*
X214244Y66520D01*
G75*
D01*
G03X212410Y66134I0J-4551*
G01*
X212410Y66134D01*
X210893Y66134D01*
G75*
D01*
G03X211307Y68031I-4137J1897*
G01*
X211307Y68031D01*
X211307Y71969D01*
G74*
D01*
G03X210151Y75000I4551J0*
G01*
G75*
D01*
G03X211307Y78031I-3395J3031*
G01*
X211307Y78031D01*
X211307Y81969D01*
G74*
D01*
G03X210151Y85000I4551J0*
G01*
G75*
D01*
G03X211307Y88031I-3395J3031*
G01*
X211307Y88031D01*
X211307Y91969D01*
G74*
D01*
G03X210151Y95000I4551J0*
G01*
G75*
D01*
G03X211307Y98031I-3395J3031*
G01*
X211307Y98031D01*
X211307Y101969D01*
G74*
D01*
G03X206756Y106520I4551J0*
G01*
X206756Y106520D01*
X201244Y106520D01*
G75*
D01*
G03X196693Y101969I0J-4551*
G01*
X196693Y101969D01*
X196693Y98031D01*
G75*
D01*
G03X197849Y95000I4551J0*
G01*
G74*
D01*
G03X196693Y91969I3395J3031*
G01*
X196693Y91969D01*
X196693Y88031D01*
D02*
G37*
G36*
X217031Y89693D02*
X217031Y89693D01*
X220969Y89693D01*
G75*
D01*
G03X225520Y94244I0J4551*
G01*
X225520Y94244D01*
X225520Y99756D01*
G74*
D01*
G03X220969Y104307I4551J0*
G01*
X220969Y104307D01*
X217031Y104307D01*
G75*
D01*
G03X212480Y99756I0J-4551*
G01*
X212480Y99756D01*
X212480Y94244D01*
G75*
D01*
G03X217031Y89693I4551J0*
G01*
D02*
G37*
G36*
X212480Y114244D02*
G75*
D01*
G03X216688Y109706I4551J0*
G01*
X216688Y109706D01*
X216688Y114688D01*
X212480Y114688D01*
X212480Y114244D01*
D02*
G37*
G36*
X221312Y109706D02*
G75*
D01*
G03X225520Y114244I-343J4538*
G01*
X225520Y114244D01*
X225520Y114688D01*
X221312Y114688D01*
X221312Y109706D01*
D02*
G37*
G36*
X201244Y110480D02*
X201244Y110480D01*
X201688Y110480D01*
X201688Y114688D01*
X196706Y114688D01*
G75*
D01*
G03X201244Y110480I4538J343*
G01*
D02*
G37*
G36*
X202031Y117000D02*
G75*
D01*
G03X202031Y117000I1969J0*
G01*
D02*
G37*
G36*
X206756Y110480D02*
G74*
D01*
G03X211294Y114688I0J4551*
G01*
X211294Y114688D01*
X206312Y114688D01*
X206312Y110480D01*
X206756Y110480D01*
D02*
G37*
G36*
X217031Y117000D02*
G75*
D01*
G03X217031Y117000I1969J0*
G01*
D02*
G37*
G36*
X212480Y119756D02*
X212480Y119756D01*
X212480Y119312D01*
X216688Y119312D01*
X216688Y124294D01*
G74*
D01*
G03X212480Y119756I343J4538*
G01*
D02*
G37*
G36*
X232244Y118480D02*
X232244Y118480D01*
X232688Y118480D01*
X232688Y122688D01*
X227706Y122688D01*
G75*
D01*
G03X232244Y118480I4538J343*
G01*
D02*
G37*
G36*
X225520Y119756D02*
G74*
D01*
G03X221312Y124294I4551J0*
G01*
X221312Y124294D01*
X221312Y119312D01*
X225520Y119312D01*
X225520Y119756D01*
D02*
G37*
G36*
X233031Y125000D02*
G75*
D01*
G03X233031Y125000I1969J0*
G01*
D02*
G37*
G36*
X237756Y118480D02*
G74*
D01*
G03X242294Y122688I0J4551*
G01*
X242294Y122688D01*
X237312Y122688D01*
X237312Y118480D01*
X237756Y118480D01*
D02*
G37*
G36*
X232244Y131520D02*
G75*
D01*
G03X227706Y127312I0J-4551*
G01*
X227706Y127312D01*
X232688Y127312D01*
X232688Y131520D01*
X232244Y131520D01*
D02*
G37*
G36*
X245244Y131480D02*
X245244Y131480D01*
X245688Y131480D01*
X245688Y135688D01*
X240706Y135688D01*
G75*
D01*
G03X245244Y131480I4538J343*
G01*
D02*
G37*
G36*
X242294Y127312D02*
G74*
D01*
G03X237756Y131520I4538J343*
G01*
X237756Y131520D01*
X237312Y131520D01*
X237312Y127312D01*
X242294Y127312D01*
D02*
G37*
G36*
X246031Y138000D02*
G75*
D01*
G03X246031Y138000I1969J0*
G01*
D02*
G37*
G36*
X201244Y3480D02*
X201244Y3480D01*
X201688Y3480D01*
X201688Y7688D01*
X196706Y7688D01*
G75*
D01*
G03X201244Y3480I4538J343*
G01*
D02*
G37*
G36*
X206756Y3480D02*
G74*
D01*
G03X211294Y7688I0J4551*
G01*
X211294Y7688D01*
X206312Y7688D01*
X206312Y3480D01*
X206756Y3480D01*
D02*
G37*
G36*
X222244Y3480D02*
X222244Y3480D01*
X222688Y3480D01*
X222688Y7688D01*
X217706Y7688D01*
G75*
D01*
G03X222244Y3480I4538J343*
G01*
D02*
G37*
G36*
X202031Y10000D02*
G75*
D01*
G03X202031Y10000I1969J0*
G01*
D02*
G37*
G36*
X222244Y16520D02*
G75*
D01*
G03X217706Y12312I0J-4551*
G01*
X217706Y12312D01*
X222688Y12312D01*
X222688Y16520D01*
X222244Y16520D01*
D02*
G37*
G36*
X232294Y12312D02*
G74*
D01*
G03X227756Y16520I4538J343*
G01*
X227756Y16520D01*
X227312Y16520D01*
X227312Y12312D01*
X232294Y12312D01*
D02*
G37*
G36*
X223031Y10000D02*
G75*
D01*
G03X223031Y10000I1969J0*
G01*
D02*
G37*
G36*
X235706Y70688D02*
G74*
D01*
G03X236849Y68000I4538J343*
G01*
G74*
D01*
G03X235693Y64969I3395J3031*
G01*
X235693Y64969D01*
X235693Y61031D01*
G75*
D01*
G03X240244Y56480I4551J0*
G01*
X240244Y56480D01*
X245756Y56480D01*
G75*
D01*
G03X250307Y61031I0J4551*
G01*
X250307Y61031D01*
X250307Y64969D01*
G74*
D01*
G03X249151Y68000I4551J0*
G01*
G74*
D01*
G03X250294Y70688I3395J3031*
G01*
X250294Y70688D01*
X245312Y70688D01*
X245312Y69520D01*
X240688Y69520D01*
X240688Y70688D01*
X235706Y70688D01*
D02*
G37*
G36*
X240244Y79520D02*
G75*
D01*
G03X235706Y75312I0J-4551*
G01*
X235706Y75312D01*
X240688Y75312D01*
X240688Y79520D01*
X240244Y79520D01*
D02*
G37*
G36*
X241031Y73000D02*
G75*
D01*
G03X241031Y73000I1969J0*
G01*
D02*
G37*
G36*
X250294Y75312D02*
G74*
D01*
G03X245756Y79520I4538J343*
G01*
X245756Y79520D01*
X245312Y79520D01*
X245312Y75312D01*
X250294Y75312D01*
D02*
G37*
%LPD*%
G36*
X51656Y209000D02*
X51656Y209000D01*
X51656Y177641D01*
G74*
D01*
G02X51987Y178013I3344J2641*
G01*
X51987Y178013D01*
X61987Y188013D01*
G74*
D01*
G02X64422Y189221I3013J3013*
G01*
G75*
D01*
G02X65000Y189261I578J-4221*
G01*
X65000Y189261D01*
X74653Y189261D01*
G74*
D01*
G02X75250Y190000I3591J2292*
G01*
G75*
D01*
G02X73983Y193031I2994J3031*
G01*
X73983Y193031D01*
X73983Y196969D01*
G74*
D01*
G02X75250Y200000I4261J0*
G01*
G75*
D01*
G02X73983Y203031I2994J3031*
G01*
X73983Y203031D01*
X73983Y206969D01*
G74*
D01*
G02X75250Y210000I4261J0*
G01*
G75*
D01*
G02X73983Y213031I2994J3031*
G01*
X73983Y213031D01*
X73983Y216969D01*
G74*
D01*
G02X75250Y220000I4261J0*
G01*
G75*
D01*
G02X73983Y223031I2994J3031*
G01*
X73983Y223031D01*
X73983Y226969D01*
G74*
D01*
G02X75250Y230000I4261J0*
G01*
G75*
D01*
G02X73983Y233031I2994J3031*
G01*
X73983Y233031D01*
X73983Y236969D01*
G74*
D01*
G02X74204Y238322I4261J0*
G01*
X74204Y238322D01*
X27796Y238322D01*
G74*
D01*
G02X28017Y236969I4040J1353*
G01*
X28017Y236969D01*
X28017Y233031D01*
G75*
D01*
G02X26750Y230000I-4261J0*
G01*
G74*
D01*
G02X27000Y229731I2994J3031*
G01*
G75*
D01*
G02X30244Y231229I3244J-2762*
G01*
X30244Y231229D01*
X30791Y231229D01*
X30791Y227209D01*
X28010Y227209D01*
G74*
D01*
G02X28017Y226969I4254J240*
G01*
X28017Y226969D01*
X28017Y223031D01*
G75*
D01*
G02X28010Y222791I-4261J0*
G01*
X28010Y222791D01*
X30791Y222791D01*
X30791Y221229D01*
X35209Y221229D01*
X35209Y222791D01*
X40010Y222791D01*
G74*
D01*
G02X38750Y220000I4254J240*
G01*
G74*
D01*
G02X39062Y219656I2994J3031*
G01*
X39062Y219656D01*
X41000Y219656D01*
G74*
D01*
G02X44296Y218289I0J4656*
G01*
X44296Y218289D01*
X50289Y212296D01*
G74*
D01*
G02X51656Y209000I3289J3296*
G01*
D02*
G37*
%LPC*%
G36*
X31031Y225000D02*
G75*
D01*
G02X31031Y225000I1969J0*
G01*
D02*
G37*
G36*
X35756Y231229D02*
G74*
D01*
G02X40010Y227209I0J4260*
G01*
X40010Y227209D01*
X35209Y227209D01*
X35209Y231229D01*
X35756Y231229D01*
D02*
G37*
%LPD*%
G36*
X27062Y129656D02*
X27062Y129656D01*
X35071Y129656D01*
X42344Y136929D01*
X42344Y207071D01*
X39071Y210344D01*
X39062Y210344D01*
G74*
D01*
G02X38750Y210000I3306J2687*
G01*
G74*
D01*
G02X40017Y206969I2994J3031*
G01*
X40017Y206969D01*
X40017Y203031D01*
G75*
D01*
G02X38750Y200000I-4261J0*
G01*
G74*
D01*
G02X40017Y196969I2994J3031*
G01*
X40017Y196969D01*
X40017Y193031D01*
G75*
D01*
G02X38750Y190000I-4261J0*
G01*
G74*
D01*
G02X40017Y186969I2994J3031*
G01*
X40017Y186969D01*
X40017Y183031D01*
G75*
D01*
G02X35756Y178771I-4261J0*
G01*
X35756Y178771D01*
X30244Y178771D01*
G75*
D01*
G02X27304Y179948I0J4260*
G01*
X27304Y179948D01*
X26801Y179948D01*
G74*
D01*
G02X28017Y176969I3045J2979*
G01*
X28017Y176969D01*
X28017Y173031D01*
G75*
D01*
G02X26750Y170000I-4261J0*
G01*
G74*
D01*
G02X28017Y166969I2994J3031*
G01*
X28017Y166969D01*
X28017Y163031D01*
G75*
D01*
G02X26750Y160000I-4261J0*
G01*
G74*
D01*
G02X28017Y156969I2994J3031*
G01*
X28017Y156969D01*
X28017Y153031D01*
G75*
D01*
G02X26750Y150000I-4261J0*
G01*
G74*
D01*
G02X28017Y146969I2994J3031*
G01*
X28017Y146969D01*
X28017Y143031D01*
G75*
D01*
G02X26750Y140000I-4261J0*
G01*
G74*
D01*
G02X28017Y136969I2994J3031*
G01*
X28017Y136969D01*
X28017Y133031D01*
G75*
D01*
G02X26750Y130000I-4261J0*
G01*
G74*
D01*
G02X27062Y129656I2994J3031*
G01*
D02*
G37*
G36*
X74653Y180739D02*
X74653Y180739D01*
X66765Y180739D01*
X59261Y173235D01*
X59261Y137042D01*
G74*
D01*
G02X59987Y138013I3739J2042*
G01*
X59987Y138013D01*
X69987Y148013D01*
G74*
D01*
G02X72422Y149221I3013J3013*
G01*
G75*
D01*
G02X73000Y149261I578J-4221*
G01*
X73000Y149261D01*
X74653Y149261D01*
G74*
D01*
G02X75250Y150000I3591J2292*
G01*
G75*
D01*
G02X73983Y153031I2994J3031*
G01*
X73983Y153031D01*
X73983Y156969D01*
G74*
D01*
G02X75250Y160000I4261J0*
G01*
G75*
D01*
G02X73983Y163031I2994J3031*
G01*
X73983Y163031D01*
X73983Y166969D01*
G74*
D01*
G02X75250Y170000I4261J0*
G01*
G75*
D01*
G02X73983Y173031I2994J3031*
G01*
X73983Y173031D01*
X73983Y176969D01*
G74*
D01*
G02X75250Y180000I4261J0*
G01*
G74*
D01*
G02X74653Y180739I2994J3031*
G01*
D02*
G37*
G36*
X83209Y128771D02*
X83209Y128771D01*
X83209Y127209D01*
X86739Y127209D01*
X86739Y122791D01*
X83209Y122791D01*
X83209Y121229D01*
X78791Y121229D01*
X78791Y122791D01*
X74261Y122791D01*
X74261Y127209D01*
X78791Y127209D01*
X78791Y128771D01*
X83209Y128771D01*
D02*
G37*
%LPC*%
G36*
X79031Y125000D02*
G75*
D01*
G03X79031Y125000I1969J0*
G01*
D02*
G37*
%LPD*%
G36*
X49250Y22000D02*
G74*
D01*
G02X48653Y22739I2994J3031*
G01*
X48653Y22739D01*
X47347Y22739D01*
G74*
D01*
G02X46750Y22000I3591J2292*
G01*
G74*
D01*
G02X48000Y19344I2994J3031*
G01*
G74*
D01*
G02X49250Y22000I4244J375*
G01*
D02*
G37*
G36*
X77653Y22739D02*
G74*
D01*
G03X78250Y22000I3591J2292*
G01*
G74*
D01*
G03X77000Y19344I2994J3031*
G01*
G74*
D01*
G03X75750Y22000I4244J375*
G01*
G74*
D01*
G03X76347Y22739I2994J3031*
G01*
X76347Y22739D01*
X77653Y22739D01*
D02*
G37*
G54D11*
X261785Y206634D02*
G75*
D01*
G02X261785Y206634I-1785J14366*
G01*
X121017Y185031D02*
G75*
D01*
G02X119750Y182000I-4261J0*
G01*
G74*
D01*
G02X121017Y178969I2994J3031*
G01*
X121017Y175031D01*
G75*
D01*
G02X119750Y172000I-4261J0*
G01*
G74*
D01*
G02X121010Y169209I2994J3031*
G01*
X116209Y169209D01*
X116209Y170771D01*
X111791Y170771D01*
X111791Y169209D01*
X106990Y169209D01*
G74*
D01*
G02X108250Y172000I4254J240*
G01*
G75*
D01*
G02X106983Y175031I2994J3031*
G01*
X106983Y178969D01*
G74*
D01*
G02X108250Y182000I4261J0*
G01*
G75*
D01*
G02X106983Y185031I2994J3031*
G01*
X106983Y188969D01*
G74*
D01*
G02X108250Y192000I4261J0*
G01*
G74*
D01*
G02X106990Y194791I2994J3031*
G01*
X111791Y194791D01*
X111791Y193229D01*
X116209Y193229D01*
X116209Y194791D01*
X121010Y194791D01*
G74*
D01*
G02X119750Y192000I4254J240*
G01*
G74*
D01*
G02X121017Y188969I2994J3031*
G01*
X121017Y185031D01*
X221775Y186298D02*
G75*
D01*
G02X221775Y186298I-893J-1754*
G01*
X205839Y186298D02*
G75*
D01*
G02X205839Y186298I-1839J702*
G01*
X23756Y88771D02*
X18244Y88771D01*
G75*
D01*
G02X13983Y93031I0J4260*
G01*
X13983Y96969D01*
G74*
D01*
G02X15250Y100000I4261J0*
G01*
G74*
D01*
G02X13990Y102791I2994J3031*
G01*
X18791Y102791D01*
X18791Y101229D01*
X23209Y101229D01*
X23209Y102791D01*
X28010Y102791D01*
G74*
D01*
G02X26750Y100000I4254J240*
G01*
G74*
D01*
G02X28017Y96969I2994J3031*
G01*
X28017Y93031D01*
G75*
D01*
G02X23756Y88771I-4261J0*
G01*
X114774Y91810D02*
G75*
D01*
G02X114774Y91810I-774J-1810*
G01*
X72756Y10771D02*
X72209Y10771D01*
X72209Y14791D01*
X81791Y14791D01*
X81791Y10771D01*
X81244Y10771D01*
G75*
D01*
G02X77000Y14656I0J4260*
G01*
G74*
D01*
G02X72756Y10771I4244J375*
G01*
X242244Y3771D02*
G75*
D01*
G02X237990Y7791I0J4260*
G01*
X242791Y7791D01*
X242791Y3771D01*
X242244Y3771D01*
X247756Y3771D02*
X247209Y3771D01*
X247209Y7791D01*
X252010Y7791D01*
G74*
D01*
G02X247756Y3771I4254J240*
G01*
X243031Y10000D02*
G75*
D01*
G02X243031Y10000I1969J0*
G01*
X252010Y12209D02*
X247209Y12209D01*
X247209Y16229D01*
X247756Y16229D01*
G74*
D01*
G02X252010Y12209I0J4260*
G01*
X-15476Y223000D02*
G75*
D01*
G02X-15476Y223000I14476J0*
G01*
X112031Y197000D02*
G75*
D01*
G02X112031Y197000I1969J0*
G01*
X106990Y199209D02*
G74*
D01*
G02X108250Y202000I4254J240*
G01*
G75*
D01*
G02X106983Y205031I2994J3031*
G01*
X106983Y208969D01*
G75*
D01*
G02X111244Y213229I4261J0*
G01*
X116756Y213229D01*
G74*
D01*
G02X121017Y208969I0J4260*
G01*
X121017Y205031D01*
G75*
D01*
G02X119750Y202000I-4261J0*
G01*
G74*
D01*
G02X121010Y199209I2994J3031*
G01*
X116209Y199209D01*
X116209Y200771D01*
X111791Y200771D01*
X111791Y199209D01*
X106990Y199209D01*
X134209Y217990D02*
X134209Y222791D01*
X138229Y222791D01*
X138229Y222244D01*
G75*
D01*
G02X134209Y217990I-4260J0*
G01*
X130031Y225000D02*
G75*
D01*
G02X130031Y225000I1969J0*
G01*
X214653Y187300D02*
G74*
D01*
G02X218673Y191554I4260J0*
G01*
X218673Y186753D01*
X214653Y186753D01*
X214653Y187300D01*
X235085Y198458D02*
X232529Y202000D01*
X235085Y205542D01*
G74*
D01*
G02X235141Y204917I3459J625*
G01*
X235141Y199083D01*
G75*
D01*
G02X235085Y198458I-3515J0*
G01*
X202031Y197000D02*
G75*
D01*
G02X202031Y197000I1969J0*
G01*
X196990Y189209D02*
G74*
D01*
G02X198250Y192000I4254J240*
G01*
G74*
D01*
G02X196990Y194791I2994J3031*
G01*
X201791Y194791D01*
X201791Y189209D01*
X196990Y189209D01*
X211010Y189209D02*
X206209Y189209D01*
X206209Y194791D01*
X211010Y194791D01*
G74*
D01*
G02X209750Y192000I4254J240*
G01*
G74*
D01*
G02X211010Y189209I2994J3031*
G01*
X232930Y195819D02*
G74*
D01*
G02X231626Y195568I1304J3264*
G01*
X229375Y195568D01*
G75*
D01*
G02X228070Y195819I0J3515*
G01*
X230500Y199187D01*
X232930Y195819D01*
X216880Y220365D02*
G75*
D01*
G02X219083Y221141I2203J-2739*
G01*
X224917Y221141D01*
G74*
D01*
G02X228432Y217626I0J3515*
G01*
X228432Y215375D01*
G75*
D01*
G02X224917Y211859I-3515J0*
G01*
X219083Y211859D01*
G75*
D01*
G02X216880Y212635I0J3516*
G01*
X212501Y212635D01*
G75*
D01*
G02X209767Y213767I-1J3865*
G01*
X207909Y215625D01*
G74*
D01*
G02X205395Y213229I3940J1619*
G01*
X206756Y213229D01*
G74*
D01*
G02X211017Y208969I0J4260*
G01*
X211017Y205031D01*
G75*
D01*
G02X209750Y202000I-4261J0*
G01*
G74*
D01*
G02X211010Y199209I2994J3031*
G01*
X206209Y199209D01*
X206209Y200771D01*
X201791Y200771D01*
X201791Y199209D01*
X196990Y199209D01*
G74*
D01*
G02X198250Y202000I4254J240*
G01*
G75*
D01*
G02X196983Y205031I2994J3031*
G01*
X196983Y208969D01*
G74*
D01*
G02X199831Y212988I4261J0*
G01*
G74*
D01*
G02X197000Y214250I200J4256*
G01*
G74*
D01*
G02X194209Y212990I3031J2994*
G01*
X194209Y217791D01*
X195771Y217791D01*
X195771Y222209D01*
X194209Y222209D01*
X194209Y227010D01*
G74*
D01*
G02X197000Y225750I240J4254*
G01*
G75*
D01*
G02X200031Y227017I3031J-2994*
G01*
X203969Y227017D01*
G74*
D01*
G02X208082Y223865I0J4261*
G01*
X209000Y223865D01*
G74*
D01*
G02X211736Y222730I0J3865*
G01*
X214101Y220365D01*
X216880Y220365D01*
X225915Y205542D02*
X228471Y202000D01*
X225915Y198458D01*
G75*
D01*
G02X225859Y199083I3460J625*
G01*
X225859Y204917D01*
G74*
D01*
G02X225915Y205542I3516J0*
G01*
X232930Y208181D02*
X230500Y204813D01*
X228070Y208181D01*
G75*
D01*
G02X229375Y208432I1305J-3264*
G01*
X231626Y208432D01*
G74*
D01*
G02X232930Y208181I0J3515*
G01*
X185771Y217244D02*
X185771Y217791D01*
X189791Y217791D01*
X189791Y212990D01*
G75*
D01*
G02X185771Y217244I240J4254*
G01*
X190031Y220000D02*
G75*
D01*
G02X190031Y220000I1969J0*
G01*
X185771Y222756D02*
G74*
D01*
G02X189791Y227010I4260J0*
G01*
X189791Y222209D01*
X185771Y222209D01*
X185771Y222756D01*
X19031Y105000D02*
G75*
D01*
G02X19031Y105000I1969J0*
G01*
X214653Y181788D02*
X214653Y182335D01*
X218673Y182335D01*
X218673Y177534D01*
G75*
D01*
G02X214653Y181788I240J4254*
G01*
X211010Y179209D02*
X206209Y179209D01*
X206209Y184791D01*
X211010Y184791D01*
G74*
D01*
G02X209750Y182000I4254J240*
G01*
G74*
D01*
G02X211010Y179209I2994J3031*
G01*
X196990Y179209D02*
G74*
D01*
G02X198250Y182000I4254J240*
G01*
G74*
D01*
G02X196990Y184791I2994J3031*
G01*
X201791Y184791D01*
X201791Y179209D01*
X196990Y179209D01*
X202031Y177000D02*
G75*
D01*
G02X202031Y177000I1969J0*
G01*
X106990Y92209D02*
G74*
D01*
G02X108250Y95000I4254J240*
G01*
G75*
D01*
G02X106983Y98031I2994J3031*
G01*
X106983Y101969D01*
G75*
D01*
G02X111244Y106229I4261J0*
G01*
X116756Y106229D01*
G74*
D01*
G02X121017Y101969I0J4260*
G01*
X121017Y98031D01*
G75*
D01*
G02X119750Y95000I-4261J0*
G01*
G74*
D01*
G02X121010Y92209I2994J3031*
G01*
X116209Y92209D01*
X116209Y93771D01*
X111791Y93771D01*
X111791Y92209D01*
X106990Y92209D01*
X106990Y164791D02*
X111791Y164791D01*
X111791Y163229D01*
X116209Y163229D01*
X116209Y164791D01*
X121010Y164791D01*
G74*
D01*
G02X119750Y162000I4254J240*
G01*
G74*
D01*
G02X121017Y158969I2994J3031*
G01*
X121017Y155031D01*
G75*
D01*
G02X119750Y152000I-4261J0*
G01*
G74*
D01*
G02X121017Y148969I2994J3031*
G01*
X121017Y145031D01*
G75*
D01*
G02X119750Y142000I-4261J0*
G01*
G74*
D01*
G02X121017Y138969I2994J3031*
G01*
X121017Y135031D01*
G75*
D01*
G02X119750Y132000I-4261J0*
G01*
G74*
D01*
G02X121017Y128969I2994J3031*
G01*
X121017Y125031D01*
G75*
D01*
G02X119750Y122000I-4261J0*
G01*
G74*
D01*
G02X121017Y118969I2994J3031*
G01*
X121017Y115031D01*
G75*
D01*
G02X116756Y110771I-4261J0*
G01*
X111244Y110771D01*
G75*
D01*
G02X106983Y115031I0J4260*
G01*
X106983Y118969D01*
G74*
D01*
G02X108250Y122000I4261J0*
G01*
G75*
D01*
G02X106983Y125031I2994J3031*
G01*
X106983Y128969D01*
G74*
D01*
G02X108250Y132000I4261J0*
G01*
G75*
D01*
G02X106983Y135031I2994J3031*
G01*
X106983Y138969D01*
G74*
D01*
G02X108250Y142000I4261J0*
G01*
G75*
D01*
G02X106983Y145031I2994J3031*
G01*
X106983Y148969D01*
G74*
D01*
G02X108250Y152000I4261J0*
G01*
G75*
D01*
G02X106983Y155031I2994J3031*
G01*
X106983Y158969D01*
G74*
D01*
G02X108250Y162000I4261J0*
G01*
G74*
D01*
G02X106990Y164791I2994J3031*
G01*
X112031Y167000D02*
G75*
D01*
G02X112031Y167000I1969J0*
G01*
X-14476Y19000D02*
G75*
D01*
G02X-14476Y19000I14476J0*
G01*
X18990Y14791D02*
X23791Y14791D01*
X23791Y10771D01*
X23244Y10771D01*
G75*
D01*
G02X18990Y14791I0J4260*
G01*
X28756Y10771D02*
X28209Y10771D01*
X28209Y14791D01*
X33010Y14791D01*
G74*
D01*
G02X28756Y10771I4254J240*
G01*
X24031Y17000D02*
G75*
D01*
G02X24031Y17000I1969J0*
G01*
X39031Y17000D02*
G75*
D01*
G02X39031Y17000I1969J0*
G01*
X33990Y14791D02*
X38791Y14791D01*
X38791Y10771D01*
X38244Y10771D01*
G75*
D01*
G02X33990Y14791I0J4260*
G01*
X43756Y10771D02*
X43209Y10771D01*
X43209Y14791D01*
X52791Y14791D01*
X52791Y10771D01*
X52244Y10771D01*
G75*
D01*
G02X48000Y14656I0J4260*
G01*
G74*
D01*
G02X43756Y10771I4244J375*
G01*
X53031Y17000D02*
G75*
D01*
G02X53031Y17000I1969J0*
G01*
X62990Y14791D02*
X67791Y14791D01*
X67791Y10771D01*
X67244Y10771D01*
G75*
D01*
G02X62990Y14791I0J4260*
G01*
X57756Y10771D02*
X57209Y10771D01*
X57209Y14791D01*
X62010Y14791D01*
G74*
D01*
G02X57756Y10771I4254J240*
G01*
X68031Y17000D02*
G75*
D01*
G02X68031Y17000I1969J0*
G01*
X86756Y10771D02*
X86209Y10771D01*
X86209Y14791D01*
X91010Y14791D01*
G74*
D01*
G02X86756Y10771I4254J240*
G01*
X82031Y17000D02*
G75*
D01*
G02X82031Y17000I1969J0*
G01*
X256471Y143000D02*
X256471Y51467D01*
G75*
D01*
G02X248324Y25412I529J-14467*
G01*
X242368Y16229D01*
X242791Y16229D01*
X242791Y12209D01*
X239760Y12209D01*
X233578Y2678D01*
X276324Y2678D01*
X276324Y238322D01*
X87796Y238322D01*
G74*
D01*
G02X88017Y236969I4040J1353*
G01*
X88017Y233031D01*
G75*
D01*
G02X86750Y230000I-4261J0*
G01*
G74*
D01*
G02X87347Y229261I2994J3031*
G01*
X102235Y229261D01*
X108987Y236013D01*
G75*
D01*
G02X112001Y237261I3013J-3013*
G01*
X209000Y237261D01*
G74*
D01*
G02X212016Y236009I0J4261*
G01*
X216265Y231761D01*
X217493Y231761D01*
G75*
D01*
G02X219083Y232141I1590J-3135*
G01*
X224917Y232141D01*
G74*
D01*
G02X226507Y231761I0J3515*
G01*
X233493Y231761D01*
G75*
D01*
G02X235083Y232141I1590J-3135*
G01*
X240917Y232141D01*
G74*
D01*
G02X244432Y228626I0J3515*
G01*
X244432Y226375D01*
G75*
D01*
G02X240917Y222859I-3515J0*
G01*
X235083Y222859D01*
G75*
D01*
G02X233493Y223239I0J3516*
G01*
X226507Y223239D01*
G74*
D01*
G02X224917Y222859I1590J3136*
G01*
X219083Y222859D01*
G75*
D01*
G02X217493Y223239I0J3516*
G01*
X214504Y223239D01*
G75*
D01*
G02X211487Y224487I-4J4261*
G01*
X207235Y228739D01*
X138114Y228739D01*
G74*
D01*
G02X138229Y227756I4145J983*
G01*
X138229Y227209D01*
X134209Y227209D01*
X134209Y228739D01*
X129791Y228739D01*
X129791Y227209D01*
X128229Y227209D01*
X128229Y222791D01*
X129791Y222791D01*
X129791Y217990D01*
G74*
D01*
G02X127000Y219250I240J4254*
G01*
G74*
D01*
G02X123969Y217983I3031J2994*
G01*
X120031Y217983D01*
G75*
D01*
G02X115771Y222244I0J4261*
G01*
X115771Y227756D01*
G74*
D01*
G02X115886Y228739I4260J0*
G01*
X113765Y228739D01*
X107016Y221991D01*
G74*
D01*
G02X104000Y220739I3016J3009*
G01*
X87347Y220739D01*
G74*
D01*
G02X86750Y220000I3591J2292*
G01*
G74*
D01*
G02X88017Y216969I2994J3031*
G01*
X88017Y213031D01*
G75*
D01*
G02X86750Y210000I-4261J0*
G01*
G74*
D01*
G02X88017Y206969I2994J3031*
G01*
X88017Y203031D01*
G75*
D01*
G02X86750Y200000I-4261J0*
G01*
G74*
D01*
G02X88017Y196969I2994J3031*
G01*
X88017Y193031D01*
G75*
D01*
G02X86750Y190000I-4261J0*
G01*
G74*
D01*
G02X88017Y186969I2994J3031*
G01*
X88017Y183031D01*
G75*
D01*
G02X86750Y180000I-4261J0*
G01*
G74*
D01*
G02X87357Y179246I2994J3031*
G01*
G74*
D01*
G02X90016Y178009I357J4246*
G01*
X104009Y164016D01*
G74*
D01*
G02X105261Y161000I3009J3016*
G01*
X105261Y56765D01*
X107697Y54329D01*
G74*
D01*
G02X108250Y55000I3547J2360*
G01*
G75*
D01*
G02X106983Y58031I2994J3031*
G01*
X106983Y61969D01*
G74*
D01*
G02X108250Y65000I4261J0*
G01*
G75*
D01*
G02X106983Y68031I2994J3031*
G01*
X106983Y71969D01*
G74*
D01*
G02X108250Y75000I4261J0*
G01*
G75*
D01*
G02X106983Y78031I2994J3031*
G01*
X106983Y81969D01*
G74*
D01*
G02X108250Y85000I4261J0*
G01*
G74*
D01*
G02X106990Y87791I2994J3031*
G01*
X111791Y87791D01*
X111791Y86229D01*
X116209Y86229D01*
X116209Y87791D01*
X121010Y87791D01*
G74*
D01*
G02X119750Y85000I4254J240*
G01*
G74*
D01*
G02X121017Y81969I2994J3031*
G01*
X121017Y78031D01*
G75*
D01*
G02X119750Y75000I-4261J0*
G01*
G74*
D01*
G02X121017Y71969I2994J3031*
G01*
X121017Y68031D01*
G75*
D01*
G02X119750Y65000I-4261J0*
G01*
G74*
D01*
G02X121017Y61969I2994J3031*
G01*
X121017Y58031D01*
G75*
D01*
G02X119750Y55000I-4261J0*
G01*
G74*
D01*
G02X121017Y51969I2994J3031*
G01*
X121017Y48031D01*
G75*
D01*
G02X119750Y45000I-4261J0*
G01*
G74*
D01*
G02X121017Y41969I2994J3031*
G01*
X121017Y38031D01*
G75*
D01*
G02X119750Y35000I-4261J0*
G01*
G74*
D01*
G02X121017Y31969I2994J3031*
G01*
X121017Y28031D01*
G75*
D01*
G02X119750Y25000I-4261J0*
G01*
G74*
D01*
G02X121017Y21969I2994J3031*
G01*
X121017Y18031D01*
G75*
D01*
G02X119750Y15000I-4261J0*
G01*
G75*
D01*
G02X121017Y11969I-2994J-3031*
G01*
X121017Y8031D01*
G74*
D01*
G02X116756Y3771I4261J0*
G01*
X111244Y3771D01*
G75*
D01*
G02X106983Y8031I0J4260*
G01*
X106983Y11969D01*
G74*
D01*
G02X108250Y15000I4261J0*
G01*
G75*
D01*
G02X106983Y18031I2994J3031*
G01*
X106983Y21969D01*
G74*
D01*
G02X108250Y25000I4261J0*
G01*
G74*
D01*
G02X107653Y25739I2994J3031*
G01*
X106000Y25739D01*
G75*
D01*
G02X104516Y26006I0J4261*
G01*
G74*
D01*
G02X102987Y26987I1484J3994*
G01*
X87987Y41987D01*
G75*
D01*
G02X86739Y45006I3013J3013*
G01*
X86739Y89990D01*
G74*
D01*
G02X83756Y88771I2983J3041*
G01*
X78244Y88771D01*
G75*
D01*
G02X74261Y91520I0J4260*
G01*
X74261Y32955D01*
G74*
D01*
G02X76347Y31261I1505J3986*
G01*
X77653Y31261D01*
G75*
D01*
G02X81244Y33229I3591J-2292*
G01*
X86756Y33229D01*
G74*
D01*
G02X91017Y28969I0J4260*
G01*
X91017Y25031D01*
G75*
D01*
G02X89750Y22000I-4261J0*
G01*
G74*
D01*
G02X91010Y19209I2994J3031*
G01*
X86209Y19209D01*
X86209Y20771D01*
X81791Y20771D01*
X81791Y19209D01*
X72209Y19209D01*
X72209Y20771D01*
X67791Y20771D01*
X67791Y19209D01*
X62990Y19209D01*
G74*
D01*
G02X64250Y22000I4254J240*
G01*
G75*
D01*
G02X62983Y25031I2994J3031*
G01*
X62983Y28969D01*
G74*
D01*
G02X65739Y32955I4261J0*
G01*
X65739Y51714D01*
X59261Y45235D01*
X59261Y32955D01*
G74*
D01*
G02X62017Y28969I1505J3986*
G01*
X62017Y25031D01*
G75*
D01*
G02X60750Y22000I-4261J0*
G01*
G74*
D01*
G02X62010Y19209I2994J3031*
G01*
X57209Y19209D01*
X57209Y20771D01*
X52791Y20771D01*
X52791Y19209D01*
X43209Y19209D01*
X43209Y20771D01*
X38791Y20771D01*
X38791Y19209D01*
X33990Y19209D01*
G74*
D01*
G02X35250Y22000I4254J240*
G01*
G75*
D01*
G02X33983Y25031I2994J3031*
G01*
X33983Y28969D01*
G75*
D01*
G02X38244Y33229I4261J0*
G01*
X43756Y33229D01*
G74*
D01*
G02X47347Y31261I0J4260*
G01*
X48653Y31261D01*
G74*
D01*
G02X50739Y32955I3591J2292*
G01*
X50739Y46994D01*
G75*
D01*
G02X51987Y50013I4261J6*
G01*
X58739Y56765D01*
X58739Y84958D01*
G74*
D01*
G02X58009Y83984I3739J2042*
G01*
X30261Y56235D01*
X30261Y32955D01*
G74*
D01*
G02X33017Y28969I1505J3986*
G01*
X33017Y25031D01*
G75*
D01*
G02X31750Y22000I-4261J0*
G01*
G74*
D01*
G02X33010Y19209I2994J3031*
G01*
X28209Y19209D01*
X28209Y20771D01*
X23791Y20771D01*
X23791Y19209D01*
X18990Y19209D01*
G74*
D01*
G02X20250Y22000I4254J240*
G01*
G75*
D01*
G02X18983Y25031I2994J3031*
G01*
X18983Y28969D01*
G74*
D01*
G02X21739Y32955I4261J0*
G01*
X21739Y57993D01*
G75*
D01*
G02X22987Y61013I4261J7*
G01*
X50739Y88765D01*
X50739Y132225D01*
G74*
D01*
G02X50289Y131704I3739J2775*
G01*
X40296Y121711D01*
G74*
D01*
G02X38555Y120611I3296J3289*
G01*
G75*
D01*
G02X36996Y120344I-1555J4389*
G01*
X27062Y120344D01*
G74*
D01*
G02X26750Y120000I3306J2687*
G01*
G74*
D01*
G02X28017Y116969I2994J3031*
G01*
X28017Y113031D01*
G75*
D01*
G02X26750Y110000I-4261J0*
G01*
G74*
D01*
G02X28010Y107209I2994J3031*
G01*
X23209Y107209D01*
X23209Y108771D01*
X18791Y108771D01*
X18791Y107209D01*
X13990Y107209D01*
G74*
D01*
G02X15250Y110000I4254J240*
G01*
G75*
D01*
G02X13983Y113031I2994J3031*
G01*
X13983Y116969D01*
G74*
D01*
G02X15250Y120000I4261J0*
G01*
G75*
D01*
G02X13983Y123031I2994J3031*
G01*
X13983Y126969D01*
G74*
D01*
G02X15250Y130000I4261J0*
G01*
G75*
D01*
G02X13983Y133031I2994J3031*
G01*
X13983Y136969D01*
G74*
D01*
G02X15250Y140000I4261J0*
G01*
G75*
D01*
G02X13983Y143031I2994J3031*
G01*
X13983Y146969D01*
G74*
D01*
G02X15250Y150000I4261J0*
G01*
G75*
D01*
G02X13983Y153031I2994J3031*
G01*
X13983Y156969D01*
G74*
D01*
G02X15250Y160000I4261J0*
G01*
G75*
D01*
G02X13983Y163031I2994J3031*
G01*
X13983Y166969D01*
G74*
D01*
G02X15250Y170000I4261J0*
G01*
G75*
D01*
G02X13983Y173031I2994J3031*
G01*
X13983Y176969D01*
G74*
D01*
G02X15250Y180000I4261J0*
G01*
G75*
D01*
G02X13983Y183031I2994J3031*
G01*
X13983Y186969D01*
G74*
D01*
G02X15250Y190000I4261J0*
G01*
G75*
D01*
G02X13983Y193031I2994J3031*
G01*
X13983Y196969D01*
G74*
D01*
G02X15250Y200000I4261J0*
G01*
G75*
D01*
G02X13983Y203031I2994J3031*
G01*
X13983Y206969D01*
G74*
D01*
G02X15250Y210000I4261J0*
G01*
G75*
D01*
G02X13983Y213031I2994J3031*
G01*
X13983Y216969D01*
G74*
D01*
G02X15250Y220000I4261J0*
G01*
G75*
D01*
G02X13983Y223031I2994J3031*
G01*
X13983Y226969D01*
G74*
D01*
G02X15250Y230000I4261J0*
G01*
G75*
D01*
G02X13983Y233031I2994J3031*
G01*
X13983Y236969D01*
G74*
D01*
G02X14204Y238322I4261J0*
G01*
X-16323Y238322D01*
X-16323Y2678D01*
X191529Y2678D01*
X191529Y143000D01*
G75*
D01*
G02X195000Y146471I3471J0*
G01*
X196983Y146471D01*
X196983Y148969D01*
G74*
D01*
G02X198250Y152000I4261J0*
G01*
G75*
D01*
G02X196983Y155031I2994J3031*
G01*
X196983Y158969D01*
G74*
D01*
G02X198250Y162000I4261J0*
G01*
G75*
D01*
G02X196983Y165031I2994J3031*
G01*
X196983Y168969D01*
G74*
D01*
G02X198250Y172000I4261J0*
G01*
G74*
D01*
G02X196990Y174791I2994J3031*
G01*
X201791Y174791D01*
X201791Y173229D01*
X206209Y173229D01*
X206209Y174791D01*
X211010Y174791D01*
G74*
D01*
G02X210412Y172843I4254J240*
G01*
X212472Y172843D01*
G75*
D01*
G02X214244Y173229I1772J-3874*
G01*
X219756Y173229D01*
G74*
D01*
G02X224017Y168969I0J4260*
G01*
X224017Y165031D01*
G75*
D01*
G02X222750Y162000I-4261J0*
G01*
G74*
D01*
G02X224017Y158969I2994J3031*
G01*
X224017Y155031D01*
G75*
D01*
G02X222750Y152000I-4261J0*
G01*
G74*
D01*
G02X224017Y148969I2994J3031*
G01*
X224017Y146471D01*
X240983Y146471D01*
X240983Y149969D01*
G74*
D01*
G02X242948Y153558I4261J0*
G01*
X242948Y158907D01*
X240193Y161663D01*
G74*
D01*
G02X237756Y160897I2437J3494*
G01*
X232244Y160897D01*
G75*
D01*
G02X227983Y165157I0J4260*
G01*
X227983Y169094D01*
G74*
D01*
G02X229000Y171856I4261J0*
G01*
X227428Y173428D01*
G75*
D01*
G02X225948Y177007I3572J3572*
G01*
X225948Y178729D01*
G74*
D01*
G02X225882Y178794I2965J3059*
G01*
G74*
D01*
G02X223091Y177534I3032J2994*
G01*
X223091Y182335D01*
X224653Y182335D01*
X224653Y186753D01*
X223091Y186753D01*
X223091Y191554D01*
G74*
D01*
G02X225882Y190294I241J4254*
G01*
G75*
D01*
G02X228913Y191561I3031J-2994*
G01*
X232850Y191561D01*
G74*
D01*
G02X235882Y190294I0J4261*
G01*
G74*
D01*
G02X237017Y191115I3031J2994*
G01*
X237017Y193538D01*
G75*
D01*
G02X237635Y195641I3865J6*
G01*
X237635Y196880D01*
G75*
D01*
G02X236859Y199083I2740J2203*
G01*
X236859Y204917D01*
G74*
D01*
G02X237539Y206995I3516J0*
G01*
X235267Y209267D01*
G74*
D01*
G02X234135Y211989I2733J2733*
G01*
G75*
D01*
G02X231568Y215375I948J3386*
G01*
X231568Y217626D01*
G75*
D01*
G02X235083Y221141I3515J0*
G01*
X240917Y221141D01*
G74*
D01*
G02X244432Y217626I0J3515*
G01*
X244432Y215375D01*
G75*
D01*
G02X242955Y212511I-3515J0*
G01*
X244230Y211236D01*
G74*
D01*
G02X245365Y208500I2730J2736*
G01*
X245365Y207120D01*
G74*
D01*
G02X246141Y204917I2739J2203*
G01*
X246141Y199083D01*
G75*
D01*
G02X245365Y196880I-3515J0*
G01*
X245365Y194162D01*
G75*
D01*
G02X244747Y192066I-3865J0*
G01*
X244747Y191115D01*
G74*
D01*
G02X247111Y187300I1897J3815*
G01*
X247111Y181788D01*
G75*
D01*
G02X242850Y177528I-4261J0*
G01*
X238913Y177528D01*
G75*
D01*
G02X237299Y177845I0J4260*
G01*
X238568Y176576D01*
G74*
D01*
G02X240052Y173000I3568J3576*
G01*
X240052Y172684D01*
G74*
D01*
G02X240823Y172052I2296J3590*
G01*
X242000Y172052D01*
G74*
D01*
G02X245576Y170568I0J5052*
G01*
X251568Y164576D01*
G74*
D01*
G02X253052Y161000I3568J3576*
G01*
X253052Y153558D01*
G74*
D01*
G02X255017Y149969I2296J3589*
G01*
X255017Y146031D01*
G75*
D01*
G02X255012Y145829I-4261J0*
G01*
G74*
D01*
G02X256471Y143000I2012J2829*
G01*
X49250Y22000D02*
G74*
D01*
G02X48653Y22739I2994J3031*
G01*
X47347Y22739D01*
G74*
D01*
G02X46750Y22000I3591J2292*
G01*
G74*
D01*
G02X48000Y19344I2994J3031*
G01*
G74*
D01*
G02X49250Y22000I4244J375*
G01*
X77653Y22739D02*
G74*
D01*
G03X78250Y22000I3591J2292*
G01*
G74*
D01*
G03X77000Y19344I2994J3031*
G01*
G74*
D01*
G03X75750Y22000I4244J375*
G01*
G74*
D01*
G03X76347Y22739I2994J3031*
G01*
X77653Y22739D01*
X79031Y125000D02*
G75*
D01*
G03X79031Y125000I1969J0*
G01*
X83209Y128771D02*
X83209Y127209D01*
X86739Y127209D01*
X86739Y122791D01*
X83209Y122791D01*
X83209Y121229D01*
X78791Y121229D01*
X78791Y122791D01*
X74261Y122791D01*
X74261Y127209D01*
X78791Y127209D01*
X78791Y128771D01*
X83209Y128771D01*
X27062Y129656D02*
X35071Y129656D01*
X42344Y136929D01*
X42344Y207071D01*
X39071Y210344D01*
X39062Y210344D01*
G74*
D01*
G02X38750Y210000I3306J2687*
G01*
G74*
D01*
G02X40017Y206969I2994J3031*
G01*
X40017Y203031D01*
G75*
D01*
G02X38750Y200000I-4261J0*
G01*
G74*
D01*
G02X40017Y196969I2994J3031*
G01*
X40017Y193031D01*
G75*
D01*
G02X38750Y190000I-4261J0*
G01*
G74*
D01*
G02X40017Y186969I2994J3031*
G01*
X40017Y183031D01*
G75*
D01*
G02X35756Y178771I-4261J0*
G01*
X30244Y178771D01*
G75*
D01*
G02X27304Y179948I0J4260*
G01*
X26801Y179948D01*
G74*
D01*
G02X28017Y176969I3045J2979*
G01*
X28017Y173031D01*
G75*
D01*
G02X26750Y170000I-4261J0*
G01*
G74*
D01*
G02X28017Y166969I2994J3031*
G01*
X28017Y163031D01*
G75*
D01*
G02X26750Y160000I-4261J0*
G01*
G74*
D01*
G02X28017Y156969I2994J3031*
G01*
X28017Y153031D01*
G75*
D01*
G02X26750Y150000I-4261J0*
G01*
G74*
D01*
G02X28017Y146969I2994J3031*
G01*
X28017Y143031D01*
G75*
D01*
G02X26750Y140000I-4261J0*
G01*
G74*
D01*
G02X28017Y136969I2994J3031*
G01*
X28017Y133031D01*
G75*
D01*
G02X26750Y130000I-4261J0*
G01*
G74*
D01*
G02X27062Y129656I2994J3031*
G01*
X74653Y180739D02*
X66765Y180739D01*
X59261Y173235D01*
X59261Y137042D01*
G74*
D01*
G02X59987Y138013I3739J2042*
G01*
X69987Y148013D01*
G74*
D01*
G02X72422Y149221I3013J3013*
G01*
G75*
D01*
G02X73000Y149261I578J-4221*
G01*
X74653Y149261D01*
G74*
D01*
G02X75250Y150000I3591J2292*
G01*
G75*
D01*
G02X73983Y153031I2994J3031*
G01*
X73983Y156969D01*
G74*
D01*
G02X75250Y160000I4261J0*
G01*
G75*
D01*
G02X73983Y163031I2994J3031*
G01*
X73983Y166969D01*
G74*
D01*
G02X75250Y170000I4261J0*
G01*
G75*
D01*
G02X73983Y173031I2994J3031*
G01*
X73983Y176969D01*
G74*
D01*
G02X75250Y180000I4261J0*
G01*
G74*
D01*
G02X74653Y180739I2994J3031*
G01*
X31031Y225000D02*
G75*
D01*
G02X31031Y225000I1969J0*
G01*
X35756Y231229D02*
G74*
D01*
G02X40010Y227209I0J4260*
G01*
X35209Y227209D01*
X35209Y231229D01*
X35756Y231229D01*
X51656Y209000D02*
X51656Y177641D01*
G74*
D01*
G02X51987Y178013I3344J2641*
G01*
X61987Y188013D01*
G74*
D01*
G02X64422Y189221I3013J3013*
G01*
G75*
D01*
G02X65000Y189261I578J-4221*
G01*
X74653Y189261D01*
G74*
D01*
G02X75250Y190000I3591J2292*
G01*
G75*
D01*
G02X73983Y193031I2994J3031*
G01*
X73983Y196969D01*
G74*
D01*
G02X75250Y200000I4261J0*
G01*
G75*
D01*
G02X73983Y203031I2994J3031*
G01*
X73983Y206969D01*
G74*
D01*
G02X75250Y210000I4261J0*
G01*
G75*
D01*
G02X73983Y213031I2994J3031*
G01*
X73983Y216969D01*
G74*
D01*
G02X75250Y220000I4261J0*
G01*
G75*
D01*
G02X73983Y223031I2994J3031*
G01*
X73983Y226969D01*
G74*
D01*
G02X75250Y230000I4261J0*
G01*
G75*
D01*
G02X73983Y233031I2994J3031*
G01*
X73983Y236969D01*
G74*
D01*
G02X74204Y238322I4261J0*
G01*
X27796Y238322D01*
G74*
D01*
G02X28017Y236969I4040J1353*
G01*
X28017Y233031D01*
G75*
D01*
G02X26750Y230000I-4261J0*
G01*
G74*
D01*
G02X27000Y229731I2994J3031*
G01*
G75*
D01*
G02X30244Y231229I3244J-2762*
G01*
X30791Y231229D01*
X30791Y227209D01*
X28010Y227209D01*
G74*
D01*
G02X28017Y226969I4254J240*
G01*
X28017Y223031D01*
G75*
D01*
G02X28010Y222791I-4261J0*
G01*
X30791Y222791D01*
X30791Y221229D01*
X35209Y221229D01*
X35209Y222791D01*
X40010Y222791D01*
G74*
D01*
G02X38750Y220000I4254J240*
G01*
G74*
D01*
G02X39062Y219656I2994J3031*
G01*
X41000Y219656D01*
G74*
D01*
G02X44296Y218289I0J4656*
G01*
X50289Y212296D01*
G74*
D01*
G02X51656Y209000I3289J3296*
G01*
G54D12*
X196693Y88031D02*
G75*
D01*
G03X197849Y85000I4551J0*
G01*
G74*
D01*
G03X196693Y81969I3395J3031*
G01*
X196693Y78031D01*
G75*
D01*
G03X197849Y75000I4551J0*
G01*
G74*
D01*
G03X196693Y71969I3395J3031*
G01*
X196693Y68031D01*
G75*
D01*
G03X197849Y65000I4551J0*
G01*
G74*
D01*
G03X196693Y61969I3395J3031*
G01*
X196693Y58031D01*
G75*
D01*
G03X197849Y55000I4551J0*
G01*
G74*
D01*
G03X196693Y51969I3395J3031*
G01*
X196693Y48031D01*
G75*
D01*
G03X197849Y45000I4551J0*
G01*
G74*
D01*
G03X196693Y41969I3395J3031*
G01*
X196693Y38031D01*
G75*
D01*
G03X197849Y35000I4551J0*
G01*
G74*
D01*
G03X196693Y31969I3395J3031*
G01*
X196693Y28031D01*
G75*
D01*
G03X197849Y25000I4551J0*
G01*
G74*
D01*
G03X196693Y21969I3395J3031*
G01*
X196693Y18031D01*
G75*
D01*
G03X197849Y15000I4551J0*
G01*
G74*
D01*
G03X196706Y12312I3395J3031*
G01*
X201688Y12312D01*
X201688Y13480D01*
X206312Y13480D01*
X206312Y12312D01*
X211294Y12312D01*
G74*
D01*
G03X210151Y15000I4538J343*
G01*
G75*
D01*
G03X211307Y18031I-3395J3031*
G01*
X211307Y21969D01*
G74*
D01*
G03X210893Y23866I4551J0*
G01*
X212410Y23866D01*
G75*
D01*
G03X214244Y23480I1834J4165*
G01*
X219756Y23480D01*
G75*
D01*
G03X224307Y28031I0J4551*
G01*
X224307Y31969D01*
G74*
D01*
G03X223151Y35000I4551J0*
G01*
G75*
D01*
G03X224307Y38031I-3395J3031*
G01*
X224307Y41969D01*
G74*
D01*
G03X223151Y45000I4551J0*
G01*
G75*
D01*
G03X224307Y48031I-3395J3031*
G01*
X224307Y51969D01*
G74*
D01*
G03X223151Y55000I4551J0*
G01*
G75*
D01*
G03X224307Y58031I-3395J3031*
G01*
X224307Y61969D01*
G74*
D01*
G03X219756Y66520I4551J0*
G01*
X214244Y66520D01*
G75*
D01*
G03X212410Y66134I0J-4551*
G01*
X210893Y66134D01*
G75*
D01*
G03X211307Y68031I-4137J1897*
G01*
X211307Y71969D01*
G74*
D01*
G03X210151Y75000I4551J0*
G01*
G75*
D01*
G03X211307Y78031I-3395J3031*
G01*
X211307Y81969D01*
G74*
D01*
G03X210151Y85000I4551J0*
G01*
G75*
D01*
G03X211307Y88031I-3395J3031*
G01*
X211307Y91969D01*
G74*
D01*
G03X210151Y95000I4551J0*
G01*
G75*
D01*
G03X211307Y98031I-3395J3031*
G01*
X211307Y101969D01*
G74*
D01*
G03X206756Y106520I4551J0*
G01*
X201244Y106520D01*
G75*
D01*
G03X196693Y101969I0J-4551*
G01*
X196693Y98031D01*
G75*
D01*
G03X197849Y95000I4551J0*
G01*
G74*
D01*
G03X196693Y91969I3395J3031*
G01*
X196693Y88031D01*
X217031Y89693D02*
X220969Y89693D01*
G75*
D01*
G03X225520Y94244I0J4551*
G01*
X225520Y99756D01*
G74*
D01*
G03X220969Y104307I4551J0*
G01*
X217031Y104307D01*
G75*
D01*
G03X212480Y99756I0J-4551*
G01*
X212480Y94244D01*
G75*
D01*
G03X217031Y89693I4551J0*
G01*
X212480Y114244D02*
G75*
D01*
G03X216688Y109706I4551J0*
G01*
X216688Y114688D01*
X212480Y114688D01*
X212480Y114244D01*
X221312Y109706D02*
G75*
D01*
G03X225520Y114244I-343J4538*
G01*
X225520Y114688D01*
X221312Y114688D01*
X221312Y109706D01*
X201244Y110480D02*
X201688Y110480D01*
X201688Y114688D01*
X196706Y114688D01*
G75*
D01*
G03X201244Y110480I4538J343*
G01*
X202031Y117000D02*
G75*
D01*
G03X202031Y117000I1969J0*
G01*
X206756Y110480D02*
G74*
D01*
G03X211294Y114688I0J4551*
G01*
X206312Y114688D01*
X206312Y110480D01*
X206756Y110480D01*
X217031Y117000D02*
G75*
D01*
G03X217031Y117000I1969J0*
G01*
X212480Y119756D02*
X212480Y119312D01*
X216688Y119312D01*
X216688Y124294D01*
G74*
D01*
G03X212480Y119756I343J4538*
G01*
X232244Y118480D02*
X232688Y118480D01*
X232688Y122688D01*
X227706Y122688D01*
G75*
D01*
G03X232244Y118480I4538J343*
G01*
X225520Y119756D02*
G74*
D01*
G03X221312Y124294I4551J0*
G01*
X221312Y119312D01*
X225520Y119312D01*
X225520Y119756D01*
X233031Y125000D02*
G75*
D01*
G03X233031Y125000I1969J0*
G01*
X237756Y118480D02*
G74*
D01*
G03X242294Y122688I0J4551*
G01*
X237312Y122688D01*
X237312Y118480D01*
X237756Y118480D01*
X232244Y131520D02*
G75*
D01*
G03X227706Y127312I0J-4551*
G01*
X232688Y127312D01*
X232688Y131520D01*
X232244Y131520D01*
X245244Y131480D02*
X245688Y131480D01*
X245688Y135688D01*
X240706Y135688D01*
G75*
D01*
G03X245244Y131480I4538J343*
G01*
X242294Y127312D02*
G74*
D01*
G03X237756Y131520I4538J343*
G01*
X237312Y131520D01*
X237312Y127312D01*
X242294Y127312D01*
X246031Y138000D02*
G75*
D01*
G03X246031Y138000I1969J0*
G01*
X201244Y3480D02*
X201688Y3480D01*
X201688Y7688D01*
X196706Y7688D01*
G75*
D01*
G03X201244Y3480I4538J343*
G01*
X206756Y3480D02*
G74*
D01*
G03X211294Y7688I0J4551*
G01*
X206312Y7688D01*
X206312Y3480D01*
X206756Y3480D01*
X222244Y3480D02*
X222688Y3480D01*
X222688Y7688D01*
X217706Y7688D01*
G75*
D01*
G03X222244Y3480I4538J343*
G01*
X202031Y10000D02*
G75*
D01*
G03X202031Y10000I1969J0*
G01*
X222244Y16520D02*
G75*
D01*
G03X217706Y12312I0J-4551*
G01*
X222688Y12312D01*
X222688Y16520D01*
X222244Y16520D01*
X232294Y12312D02*
G74*
D01*
G03X227756Y16520I4538J343*
G01*
X227312Y16520D01*
X227312Y12312D01*
X232294Y12312D01*
X223031Y10000D02*
G75*
D01*
G03X223031Y10000I1969J0*
G01*
X235706Y70688D02*
G74*
D01*
G03X236849Y68000I4538J343*
G01*
G74*
D01*
G03X235693Y64969I3395J3031*
G01*
X235693Y61031D01*
G75*
D01*
G03X240244Y56480I4551J0*
G01*
X245756Y56480D01*
G75*
D01*
G03X250307Y61031I0J4551*
G01*
X250307Y64969D01*
G74*
D01*
G03X249151Y68000I4551J0*
G01*
G74*
D01*
G03X250294Y70688I3395J3031*
G01*
X245312Y70688D01*
X245312Y69520D01*
X240688Y69520D01*
X240688Y70688D01*
X235706Y70688D01*
X240244Y79520D02*
G75*
D01*
G03X235706Y75312I0J-4551*
G01*
X240688Y75312D01*
X240688Y79520D01*
X240244Y79520D01*
X241031Y73000D02*
G75*
D01*
G03X241031Y73000I1969J0*
G01*
X250294Y75312D02*
G74*
D01*
G03X245756Y79520I4538J343*
G01*
X245312Y79520D01*
X245312Y75312D01*
X250294Y75312D01*
X230615Y4491D02*
X229629Y2969D01*
X195000Y2969D01*
X195000Y143000D01*
X197171Y143000D01*
G74*
D01*
G03X197849Y142000I4073J2031*
G01*
G74*
D01*
G03X196693Y138969I3395J3031*
G01*
X196693Y135031D01*
G75*
D01*
G03X197849Y132000I4551J0*
G01*
G74*
D01*
G03X196693Y128969I3395J3031*
G01*
X196693Y125031D01*
G75*
D01*
G03X197849Y122000I4551J0*
G01*
G74*
D01*
G03X196706Y119312I3395J3031*
G01*
X201688Y119312D01*
X201688Y120480D01*
X206312Y120480D01*
X206312Y119312D01*
X211294Y119312D01*
G74*
D01*
G03X210151Y122000I4538J343*
G01*
G75*
D01*
G03X211307Y125031I-3395J3031*
G01*
X211307Y128969D01*
G74*
D01*
G03X210893Y130866I4551J0*
G01*
X212410Y130866D01*
G75*
D01*
G03X214244Y130480I1834J4165*
G01*
X219756Y130480D01*
G75*
D01*
G03X224307Y135031I0J4551*
G01*
X224307Y138969D01*
G74*
D01*
G03X223151Y142000I4551J0*
G01*
G74*
D01*
G03X223829Y143000I3395J3031*
G01*
X241849Y143000D01*
G74*
D01*
G03X240706Y140312I3395J3031*
G01*
X245688Y140312D01*
X245688Y141480D01*
X250312Y141480D01*
X250312Y140312D01*
X253000Y140312D01*
X253000Y135688D01*
X250312Y135688D01*
X250312Y131480D01*
X250756Y131480D01*
G74*
D01*
G03X253000Y132072I0J4551*
G01*
X253000Y51214D01*
G75*
D01*
G03X245609Y27605I4000J-14214*
G01*
X232155Y6864D01*
G74*
D01*
G03X232294Y7688I4399J1167*
G01*
X227312Y7688D01*
X227312Y3480D01*
X227756Y3480D01*
G74*
D01*
G03X230615Y4491I0J4551*
G01*
G54D13*
X55000Y47000D02*
X55000Y27000D01*
X41000Y27000D02*
X55000Y27000D01*
X70000Y27000D02*
X84000Y27000D01*
X81000Y225000D02*
X104000Y225000D01*
X112000Y233000D01*
X209000Y233000D01*
X214500Y227500D01*
X238000Y227500D01*
X106000Y40000D02*
X96000Y50000D01*
X114000Y40000D02*
X106000Y40000D01*
X96000Y50000D02*
X96000Y55000D01*
X114000Y50000D02*
X106000Y50000D01*
X101000Y55000D01*
X101000Y60000D01*
X106000Y30000D02*
X91000Y45000D01*
X106000Y30000D02*
X114000Y30000D01*
X91000Y45000D02*
X91000Y50000D01*
X70000Y132000D02*
X73000Y135000D01*
X70000Y27000D02*
X70000Y132000D01*
X73000Y135000D02*
X81000Y135000D01*
X81000Y145000D02*
X73000Y145000D01*
X87000Y165000D02*
X96000Y156000D01*
X96000Y55000D01*
X87000Y165000D02*
X81000Y165000D01*
X87000Y155000D02*
X91000Y151000D01*
X91000Y50000D01*
X81000Y155000D02*
X87000Y155000D01*
X87000Y175000D02*
X101000Y161000D01*
X101000Y60000D01*
X87000Y175000D02*
X81000Y175000D01*
X63000Y135000D02*
X63000Y55000D01*
X73000Y145000D02*
X63000Y135000D01*
X63000Y55000D02*
X55000Y47000D01*
X81000Y185000D02*
X65000Y185000D01*
X26000Y58000D02*
X26000Y27000D01*
X55000Y175000D02*
X55000Y87000D01*
X26000Y58000D01*
X65000Y185000D02*
X55000Y175000D01*
G54D14*
X204000Y137000D02*
X217000Y137000D01*
X204000Y147000D02*
X217000Y147000D01*
X204000Y157000D02*
X217000Y157000D01*
X204000Y167000D02*
X217000Y167000D01*
X204000Y30000D02*
X217000Y30000D01*
X204000Y40000D02*
X217000Y40000D01*
X204000Y50000D02*
X217000Y50000D01*
X204000Y60000D02*
X217000Y60000D01*
G54D15*
X21000Y185000D02*
X33000Y185000D01*
X21000Y195000D02*
X33000Y195000D01*
X21000Y205000D02*
X33000Y205000D01*
X231000Y177000D02*
X231000Y184000D01*
X235000Y173000D02*
X231000Y177000D01*
X235000Y168000D02*
X235000Y173000D01*
X235000Y167000D02*
X242000Y167000D01*
X248000Y161000D01*
X248000Y148000D01*
G54D16*
X209000Y220000D02*
X212500Y216500D01*
X202000Y220000D02*
X209000Y220000D01*
X212500Y216500D02*
X222000Y216500D01*
X241500Y194162D02*
X240882Y193544D01*
X240882Y184544D01*
X238000Y212000D02*
X241500Y208500D01*
X241500Y194162D02*
X241500Y208500D01*
X238000Y216500D02*
X238000Y212000D01*
G54D17*
X41000Y215000D02*
X33000Y215000D01*
X41000Y215000D02*
X47000Y209000D01*
X47000Y135000D02*
X37000Y125000D01*
X21000Y125000D01*
X47000Y209000D02*
X47000Y135000D01*
G54D18*
X114000Y117000D03*
X204000Y117000D03*
X114000Y127000D03*
X204000Y127000D03*
X114000Y137000D03*
X204000Y137000D03*
X114000Y147000D03*
X204000Y147000D03*
X114000Y157000D03*
X204000Y157000D03*
X114000Y167000D03*
X204000Y167000D03*
X114000Y177000D03*
X204000Y177000D03*
X114000Y187000D03*
X204000Y187000D03*
X114000Y197000D03*
X204000Y197000D03*
X114000Y207000D03*
X204000Y207000D03*
X21000Y95000D03*
X81000Y95000D03*
X21000Y105000D03*
X81000Y105000D03*
X21000Y115000D03*
X81000Y115000D03*
X21000Y125000D03*
X81000Y125000D03*
X21000Y135000D03*
X81000Y135000D03*
X21000Y145000D03*
X81000Y145000D03*
X21000Y155000D03*
X81000Y155000D03*
X21000Y165000D03*
X81000Y165000D03*
X21000Y175000D03*
X81000Y175000D03*
X21000Y185000D03*
X81000Y185000D03*
X21000Y195000D03*
X81000Y195000D03*
X21000Y205000D03*
X81000Y205000D03*
X21000Y215000D03*
X81000Y215000D03*
X21000Y225000D03*
X81000Y225000D03*
X21000Y235000D03*
X81000Y235000D03*
X114000Y50000D03*
X114000Y60000D03*
X114000Y70000D03*
X114000Y80000D03*
X114000Y90000D03*
X114000Y100000D03*
X204000Y70000D03*
X204000Y80000D03*
X204000Y90000D03*
X204000Y100000D03*
X204000Y10000D03*
X204000Y20000D03*
X204000Y60000D03*
X204000Y50000D03*
X204000Y40000D03*
X204000Y30000D03*
X114000Y40000D03*
X114000Y30000D03*
X114000Y20000D03*
X114000Y10000D03*
X41000Y27000D03*
X41000Y17000D03*
X55000Y27000D03*
X55000Y17000D03*
X70000Y27000D03*
X70000Y17000D03*
X84000Y27000D03*
X84000Y17000D03*
X33000Y185000D03*
X33000Y195000D03*
X33000Y205000D03*
X33000Y215000D03*
X33000Y225000D03*
X243000Y63000D03*
X243000Y73000D03*
X217000Y40000D03*
X217000Y50000D03*
X217000Y60000D03*
X217000Y30000D03*
X225000Y10000D03*
X245000Y10000D03*
X217000Y137000D03*
X217000Y147000D03*
X217000Y157000D03*
X217000Y167000D03*
X248000Y138000D03*
X248000Y148000D03*
X235000Y125000D03*
X235000Y167126D03*
X26000Y27000D03*
X26000Y17000D03*
G54D19*
X111244Y115032D02*
X116756Y115032D01*
X116756Y118968D01*
X111244Y118968D01*
X111244Y115032D01*D02*
X201244Y115032D02*
X206756Y115032D01*
X206756Y118968D01*
X201244Y118968D01*
X201244Y115032D01*D02*
X111244Y125032D02*
X116756Y125032D01*
X116756Y128968D01*
X111244Y128968D01*
X111244Y125032D01*D02*
X201244Y125032D02*
X206756Y125032D01*
X206756Y128968D01*
X201244Y128968D01*
X201244Y125032D01*D02*
X111244Y135032D02*
X116756Y135032D01*
X116756Y138968D01*
X111244Y138968D01*
X111244Y135032D01*D02*
X201244Y135032D02*
X206756Y135032D01*
X206756Y138968D01*
X201244Y138968D01*
X201244Y135032D01*D02*
X111244Y145032D02*
X116756Y145032D01*
X116756Y148968D01*
X111244Y148968D01*
X111244Y145032D01*D02*
X201244Y145032D02*
X206756Y145032D01*
X206756Y148968D01*
X201244Y148968D01*
X201244Y145032D01*D02*
X111244Y155032D02*
X116756Y155032D01*
X116756Y158968D01*
X111244Y158968D01*
X111244Y155032D01*D02*
X201244Y155032D02*
X206756Y155032D01*
X206756Y158968D01*
X201244Y158968D01*
X201244Y155032D01*D02*
X111244Y165032D02*
X116756Y165032D01*
X116756Y168968D01*
X111244Y168968D01*
X111244Y165032D01*D02*
X201244Y165032D02*
X206756Y165032D01*
X206756Y168968D01*
X201244Y168968D01*
X201244Y165032D01*D02*
X111244Y175032D02*
X116756Y175032D01*
X116756Y178968D01*
X111244Y178968D01*
X111244Y175032D01*D02*
X201244Y175032D02*
X206756Y175032D01*
X206756Y178968D01*
X201244Y178968D01*
X201244Y175032D01*D02*
X111244Y185032D02*
X116756Y185032D01*
X116756Y188968D01*
X111244Y188968D01*
X111244Y185032D01*D02*
X201244Y185032D02*
X206756Y185032D01*
X206756Y188968D01*
X201244Y188968D01*
X201244Y185032D01*D02*
X111244Y195032D02*
X116756Y195032D01*
X116756Y198968D01*
X111244Y198968D01*
X111244Y195032D01*D02*
X201244Y195032D02*
X206756Y195032D01*
X206756Y198968D01*
X201244Y198968D01*
X201244Y195032D01*D02*
X111244Y205032D02*
X116756Y205032D01*
X116756Y208968D01*
X111244Y208968D01*
X111244Y205032D01*D02*
X201244Y205032D02*
X206756Y205032D01*
X206756Y208968D01*
X201244Y208968D01*
X201244Y205032D01*D02*
X18244Y93032D02*
X23756Y93032D01*
X23756Y96968D01*
X18244Y96968D01*
X18244Y93032D01*D02*
X78244Y93032D02*
X83756Y93032D01*
X83756Y96968D01*
X78244Y96968D01*
X78244Y93032D01*D02*
X18244Y103032D02*
X23756Y103032D01*
X23756Y106968D01*
X18244Y106968D01*
X18244Y103032D01*D02*
X78244Y103032D02*
X83756Y103032D01*
X83756Y106968D01*
X78244Y106968D01*
X78244Y103032D01*D02*
X18244Y113032D02*
X23756Y113032D01*
X23756Y116968D01*
X18244Y116968D01*
X18244Y113032D01*D02*
X78244Y113032D02*
X83756Y113032D01*
X83756Y116968D01*
X78244Y116968D01*
X78244Y113032D01*D02*
X18244Y123032D02*
X23756Y123032D01*
X23756Y126968D01*
X18244Y126968D01*
X18244Y123032D01*D02*
X78244Y123032D02*
X83756Y123032D01*
X83756Y126968D01*
X78244Y126968D01*
X78244Y123032D01*D02*
X18244Y133032D02*
X23756Y133032D01*
X23756Y136968D01*
X18244Y136968D01*
X18244Y133032D01*D02*
X78244Y133032D02*
X83756Y133032D01*
X83756Y136968D01*
X78244Y136968D01*
X78244Y133032D01*D02*
X18244Y143032D02*
X23756Y143032D01*
X23756Y146968D01*
X18244Y146968D01*
X18244Y143032D01*D02*
X78244Y143032D02*
X83756Y143032D01*
X83756Y146968D01*
X78244Y146968D01*
X78244Y143032D01*D02*
X18244Y153032D02*
X23756Y153032D01*
X23756Y156968D01*
X18244Y156968D01*
X18244Y153032D01*D02*
X78244Y153032D02*
X83756Y153032D01*
X83756Y156968D01*
X78244Y156968D01*
X78244Y153032D01*D02*
X18244Y163032D02*
X23756Y163032D01*
X23756Y166968D01*
X18244Y166968D01*
X18244Y163032D01*D02*
X78244Y163032D02*
X83756Y163032D01*
X83756Y166968D01*
X78244Y166968D01*
X78244Y163032D01*D02*
X18244Y173032D02*
X23756Y173032D01*
X23756Y176968D01*
X18244Y176968D01*
X18244Y173032D01*D02*
X78244Y173032D02*
X83756Y173032D01*
X83756Y176968D01*
X78244Y176968D01*
X78244Y173032D01*D02*
X18244Y183032D02*
X23756Y183032D01*
X23756Y186968D01*
X18244Y186968D01*
X18244Y183032D01*D02*
X78244Y183032D02*
X83756Y183032D01*
X83756Y186968D01*
X78244Y186968D01*
X78244Y183032D01*D02*
X18244Y193032D02*
X23756Y193032D01*
X23756Y196968D01*
X18244Y196968D01*
X18244Y193032D01*D02*
X78244Y193032D02*
X83756Y193032D01*
X83756Y196968D01*
X78244Y196968D01*
X78244Y193032D01*D02*
X18244Y203032D02*
X23756Y203032D01*
X23756Y206968D01*
X18244Y206968D01*
X18244Y203032D01*D02*
X78244Y203032D02*
X83756Y203032D01*
X83756Y206968D01*
X78244Y206968D01*
X78244Y203032D01*D02*
X18244Y213032D02*
X23756Y213032D01*
X23756Y216968D01*
X18244Y216968D01*
X18244Y213032D01*D02*
X78244Y213032D02*
X83756Y213032D01*
X83756Y216968D01*
X78244Y216968D01*
X78244Y213032D01*D02*
X18244Y223032D02*
X23756Y223032D01*
X23756Y226968D01*
X18244Y226968D01*
X18244Y223032D01*D02*
X78244Y223032D02*
X83756Y223032D01*
X83756Y226968D01*
X78244Y226968D01*
X78244Y223032D01*D02*
X18244Y233032D02*
X23756Y233032D01*
X23756Y236968D01*
X18244Y236968D01*
X18244Y233032D01*D02*
X78244Y233032D02*
X83756Y233032D01*
X83756Y236968D01*
X78244Y236968D01*
X78244Y233032D01*D02*
X111244Y48032D02*
X116756Y48032D01*
X116756Y51968D01*
X111244Y51968D01*
X111244Y48032D01*D02*
X111244Y58032D02*
X116756Y58032D01*
X116756Y61968D01*
X111244Y61968D01*
X111244Y58032D01*D02*
X111244Y68032D02*
X116756Y68032D01*
X116756Y71968D01*
X111244Y71968D01*
X111244Y68032D01*D02*
X111244Y78032D02*
X116756Y78032D01*
X116756Y81968D01*
X111244Y81968D01*
X111244Y78032D01*D02*
X111244Y88032D02*
X116756Y88032D01*
X116756Y91968D01*
X111244Y91968D01*
X111244Y88032D01*D02*
X111244Y98032D02*
X116756Y98032D01*
X116756Y101968D01*
X111244Y101968D01*
X111244Y98032D01*D02*
X201244Y68032D02*
X206756Y68032D01*
X206756Y71968D01*
X201244Y71968D01*
X201244Y68032D01*D02*
X201244Y78032D02*
X206756Y78032D01*
X206756Y81968D01*
X201244Y81968D01*
X201244Y78032D01*D02*
X201244Y88032D02*
X206756Y88032D01*
X206756Y91968D01*
X201244Y91968D01*
X201244Y88032D01*D02*
X201244Y98032D02*
X206756Y98032D01*
X206756Y101968D01*
X201244Y101968D01*
X201244Y98032D01*D02*
X201244Y8032D02*
X206756Y8032D01*
X206756Y11968D01*
X201244Y11968D01*
X201244Y8032D01*D02*
X201244Y18032D02*
X206756Y18032D01*
X206756Y21968D01*
X201244Y21968D01*
X201244Y18032D01*D02*
X201244Y58032D02*
X206756Y58032D01*
X206756Y61968D01*
X201244Y61968D01*
X201244Y58032D01*D02*
X201244Y48032D02*
X206756Y48032D01*
X206756Y51968D01*
X201244Y51968D01*
X201244Y48032D01*D02*
X201244Y38032D02*
X206756Y38032D01*
X206756Y41968D01*
X201244Y41968D01*
X201244Y38032D01*D02*
X201244Y28032D02*
X206756Y28032D01*
X206756Y31968D01*
X201244Y31968D01*
X201244Y28032D01*D02*
X111244Y38032D02*
X116756Y38032D01*
X116756Y41968D01*
X111244Y41968D01*
X111244Y38032D01*D02*
X111244Y28032D02*
X116756Y28032D01*
X116756Y31968D01*
X111244Y31968D01*
X111244Y28032D01*D02*
X111244Y18032D02*
X116756Y18032D01*
X116756Y21968D01*
X111244Y21968D01*
X111244Y18032D01*D02*
X111244Y8032D02*
X116756Y8032D01*
X116756Y11968D01*
X111244Y11968D01*
X111244Y8032D01*D02*
X130032Y222244D02*
X133968Y222244D01*
X133968Y227756D01*
X130032Y227756D01*
X130032Y222244D01*D02*
X120032Y222244D02*
X123968Y222244D01*
X123968Y227756D01*
X120032Y227756D01*
X120032Y222244D01*D02*
X38244Y25032D02*
X43756Y25032D01*
X43756Y28968D01*
X38244Y28968D01*
X38244Y25032D01*D02*
X38244Y15032D02*
X43756Y15032D01*
X43756Y18968D01*
X38244Y18968D01*
X38244Y15032D01*D02*
X52244Y25032D02*
X57756Y25032D01*
X57756Y28968D01*
X52244Y28968D01*
X52244Y25032D01*D02*
X52244Y15032D02*
X57756Y15032D01*
X57756Y18968D01*
X52244Y18968D01*
X52244Y15032D01*D02*
X67244Y25032D02*
X72756Y25032D01*
X72756Y28968D01*
X67244Y28968D01*
X67244Y25032D01*D02*
X67244Y15032D02*
X72756Y15032D01*
X72756Y18968D01*
X67244Y18968D01*
X67244Y15032D01*D02*
X81244Y25032D02*
X86756Y25032D01*
X86756Y28968D01*
X81244Y28968D01*
X81244Y25032D01*D02*
X81244Y15032D02*
X86756Y15032D01*
X86756Y18968D01*
X81244Y18968D01*
X81244Y15032D01*D02*
X30244Y183032D02*
X35756Y183032D01*
X35756Y186968D01*
X30244Y186968D01*
X30244Y183032D01*D02*
X30244Y193032D02*
X35756Y193032D01*
X35756Y196968D01*
X30244Y196968D01*
X30244Y193032D01*D02*
X30244Y203032D02*
X35756Y203032D01*
X35756Y206968D01*
X30244Y206968D01*
X30244Y203032D01*D02*
X30244Y213032D02*
X35756Y213032D01*
X35756Y216968D01*
X30244Y216968D01*
X30244Y213032D01*D02*
X30244Y223032D02*
X35756Y223032D01*
X35756Y226968D01*
X30244Y226968D01*
X30244Y223032D01*D02*
X200032Y217244D02*
X203968Y217244D01*
X203968Y222756D01*
X200032Y222756D01*
X200032Y217244D01*D02*
X190032Y217244D02*
X193968Y217244D01*
X193968Y222756D01*
X190032Y222756D01*
X190032Y217244D01*D02*
X240244Y61032D02*
X245756Y61032D01*
X245756Y64968D01*
X240244Y64968D01*
X240244Y61032D01*D02*
X240244Y71032D02*
X245756Y71032D01*
X245756Y74968D01*
X240244Y74968D01*
X240244Y71032D01*D02*
X214244Y38032D02*
X219756Y38032D01*
X219756Y41968D01*
X214244Y41968D01*
X214244Y38032D01*D02*
X214244Y48032D02*
X219756Y48032D01*
X219756Y51968D01*
X214244Y51968D01*
X214244Y48032D01*D02*
X214244Y58032D02*
X219756Y58032D01*
X219756Y61968D01*
X214244Y61968D01*
X214244Y58032D01*D02*
X214244Y28032D02*
X219756Y28032D01*
X219756Y31968D01*
X214244Y31968D01*
X214244Y28032D01*D02*
X222244Y8032D02*
X227756Y8032D01*
X227756Y11968D01*
X222244Y11968D01*
X222244Y8032D01*D02*
X242244Y8032D02*
X247756Y8032D01*
X247756Y11968D01*
X242244Y11968D01*
X242244Y8032D01*D02*
X217032Y94244D02*
X220968Y94244D01*
X220968Y99756D01*
X217032Y99756D01*
X217032Y94244D01*D02*
X217032Y114244D02*
X220968Y114244D01*
X220968Y119756D01*
X217032Y119756D01*
X217032Y114244D01*D02*
X214244Y135032D02*
X219756Y135032D01*
X219756Y138968D01*
X214244Y138968D01*
X214244Y135032D01*D02*
X214244Y145032D02*
X219756Y145032D01*
X219756Y148968D01*
X214244Y148968D01*
X214244Y145032D01*D02*
X214244Y155032D02*
X219756Y155032D01*
X219756Y158968D01*
X214244Y158968D01*
X214244Y155032D01*D02*
X214244Y165032D02*
X219756Y165032D01*
X219756Y168968D01*
X214244Y168968D01*
X214244Y165032D01*D02*
X245244Y136032D02*
X250756Y136032D01*
X250756Y139968D01*
X245244Y139968D01*
X245244Y136032D01*D02*
X245244Y146032D02*
X250756Y146032D01*
X250756Y149968D01*
X245244Y149968D01*
X245244Y146032D01*D02*
X232244Y123032D02*
X237756Y123032D01*
X237756Y126968D01*
X232244Y126968D01*
X232244Y123032D01*D02*
X232244Y165158D02*
X237756Y165158D01*
X237756Y169094D01*
X232244Y169094D01*
X232244Y165158D01*D02*
X23244Y25032D02*
X28756Y25032D01*
X28756Y28968D01*
X23244Y28968D01*
X23244Y25032D01*D02*
X23244Y15032D02*
X28756Y15032D01*
X28756Y18968D01*
X23244Y18968D01*
X23244Y15032D01*D02*
X228914Y181788D02*
X232850Y181788D01*
X232850Y187300D01*
X228914Y187300D01*
X228914Y181788D01*D02*
X238914Y181788D02*
X242850Y181788D01*
X242850Y187300D01*
X238914Y187300D01*
X238914Y181788D01*D02*
X218914Y181788D02*
X222850Y181788D01*
X222850Y187300D01*
X218914Y187300D01*
X218914Y181788D01*D02*
G54D20*
X132000Y225000D03*
X122000Y225000D03*
X202000Y220000D03*
X192000Y220000D03*
X219000Y97000D03*
X219000Y117000D03*
X230882Y184544D03*
X240882Y184544D03*
X220882Y184544D03*
G54D21*
X230500Y202000D03*
X241500Y202000D03*
G54D22*
X229375Y199083D02*
X231625Y199083D01*
X231625Y204917D01*
X229375Y204917D01*
X229375Y199083D01*D02*
X240375Y199083D02*
X242625Y199083D01*
X242625Y204917D01*
X240375Y204917D01*
X240375Y199083D01*D02*
X219083Y226375D02*
X224917Y226375D01*
X224917Y228625D01*
X219083Y228625D01*
X219083Y226375D01*D02*
X219083Y215375D02*
X224917Y215375D01*
X224917Y217625D01*
X219083Y217625D01*
X219083Y215375D01*D02*
X235083Y215375D02*
X240917Y215375D01*
X240917Y217625D01*
X235083Y217625D01*
X235083Y215375D01*D02*
X235083Y226375D02*
X240917Y226375D01*
X240917Y228625D01*
X235083Y228625D01*
X235083Y226375D01*D02*
G54D23*
X222000Y227500D03*
X222000Y216500D03*
X238000Y216500D03*
X238000Y227500D03*

M02*
