M48
METRIC,TZ
VER,1
FMAT,2
DETECT,ON
ATC,ON
T1C1.0000
T2C3.0000
%
T1
X365760Y297180
X594360
X365760Y322580
X594360
X365760Y347980
X594360
X365760Y373380
X594360
X365760Y398780
X594360
X365760Y424180
X594360
X365760Y449580
X594360
X365760Y474980
X594360
X365760Y500380
X594360
X365760Y525780
X594360
X129540Y241300
X281940
X129540Y266700
X281940
X129540Y292100
X281940
X129540Y317500
X281940
X129540Y342900
X281940
X129540Y368300
X281940
X129540Y393700
X281940
X129540Y419100
X281940
X129540Y444500
X281940
X129540Y469900
X281940
X129540Y495300
X281940
X129540Y520700
X281940
X129540Y546100
X281940
X129540Y571500
X281940
X129540Y596900
X281940
X365760Y127000
Y152400
Y177800
Y203200
Y228600
Y254000
X594360Y177800
Y203200
Y228600
Y254000
Y25400
Y50800
Y152400
Y127000
Y101600
Y76200
X365760Y101600
Y76200
Y50800
Y25400
X411480Y571500
X386080
X180340Y68580
Y43180
X215900Y68580
Y43180
X254000Y68580
Y43180
X289560Y68580
Y43180
X160020Y469900
Y495300
Y520700
Y546100
Y571500
X589280Y558800
X563880
X693420Y160020
Y185420
X627380Y101600
Y127000
Y152400
Y76200
X647700Y25400
X698500
X632460Y246380
Y297180
X627380Y347980
Y373380
Y398780
Y424180
X673100Y317500
Y424500
X142240Y68580
Y43180
X662640Y468742
X688040
X637240
X706120Y358140
Y383540
T2
X63500Y556260
Y58420
X759460Y556260
X756920Y58420
M30
